999
File "test.dxf" esportato tramite "Hole Table Generator" by "Kill Goliath"
999
Powered by Davide Fasolo 2018
0
SECTION
2
ENTITIES
0
CIRCLE
8
Cerchi
10
-51.655
20
83.781
30
-15.777
40
3.0
62
152
0
TEXT
8
Tag
10
-48.63018181818182
20
86.08554444444445
30
-15.777
40
3.5
1
1
62
6
8
Tag
0
LINE
8
Etichette
10
-48.8359
20
84.8071
30
-15.777
11
-48.071
21
85.4021
31
-15.777
62
200
0
LINE
8
Etichette
10
-48.071
20
85.4021
30
-15.777
11
-49.3012
21
86.6323
31
-15.777
62
200
0
LINE
8
Etichette
10
-49.3012
20
86.6323
30
-15.777
11
-49.3012
21
88.372
31
-15.777
62
200
0
LINE
8
Etichette
10
-49.3012
20
88.372
30
-15.777
11
-48.071
21
89.6022
31
-15.777
62
200
0
LINE
8
Etichette
10
-48.071
20
89.6022
30
-15.777
11
-46.3313
21
89.6022
31
-15.777
62
200
0
LINE
8
Etichette
10
-46.3313
20
89.6022
30
-15.777
11
-45.1011
21
88.372
31
-15.777
62
200
0
LINE
8
Etichette
10
-45.1011
20
88.372
30
-15.777
11
-45.1011
21
86.6323
31
-15.777
62
200
0
LINE
8
Etichette
10
-45.1011
20
86.6323
30
-15.777
11
-46.3313
21
85.4021
31
-15.777
62
200
0
LINE
8
Etichette
10
-46.3313
20
85.4021
30
-15.777
11
-48.8359
21
84.8071
31
-15.777
62
200
0
CIRCLE
8
Cerchi
10
-33.943
20
83.781
30
-3.655
40
3.0
62
152
0
TEXT
8
Tag
10
-30.91818181818182
20
86.08554444444445
30
-3.655
40
3.5
1
2
62
6
8
Tag
0
LINE
8
Etichette
10
-31.1239
20
84.8071
30
-3.655
11
-30.359
21
85.4021
31
-3.655
62
200
0
LINE
8
Etichette
10
-30.359
20
85.4021
30
-3.655
11
-31.5892
21
86.6323
31
-3.655
62
200
0
LINE
8
Etichette
10
-31.5892
20
86.6323
30
-3.655
11
-31.5892
21
88.372
31
-3.655
62
200
0
LINE
8
Etichette
10
-31.5892
20
88.372
30
-3.655
11
-30.359
21
89.6022
31
-3.655
62
200
0
LINE
8
Etichette
10
-30.359
20
89.6022
30
-3.655
11
-28.6193
21
89.6022
31
-3.655
62
200
0
LINE
8
Etichette
10
-28.6193
20
89.6022
30
-3.655
11
-27.3891
21
88.372
31
-3.655
62
200
0
LINE
8
Etichette
10
-27.3891
20
88.372
30
-3.655
11
-27.3891
21
86.6323
31
-3.655
62
200
0
LINE
8
Etichette
10
-27.3891
20
86.6323
30
-3.655
11
-28.6193
21
85.4021
31
-3.655
62
200
0
LINE
8
Etichette
10
-28.6193
20
85.4021
30
-3.655
11
-31.1239
21
84.8071
31
-3.655
62
200
0
CIRCLE
8
Cerchi
10
33.277
20
83.781
30
-3.655
40
3.0
62
152
0
TEXT
8
Tag
10
36.30181818181818
20
86.08554444444445
30
-3.655
40
3.5
1
3
62
6
8
Tag
0
LINE
8
Etichette
10
36.0961
20
84.8071
30
-3.655
11
36.861
21
85.4021
31
-3.655
62
200
0
LINE
8
Etichette
10
36.861
20
85.4021
30
-3.655
11
35.6308
21
86.6323
31
-3.655
62
200
0
LINE
8
Etichette
10
35.6308
20
86.6323
30
-3.655
11
35.6308
21
88.372
31
-3.655
62
200
0
LINE
8
Etichette
10
35.6308
20
88.372
30
-3.655
11
36.861
21
89.6022
31
-3.655
62
200
0
LINE
8
Etichette
10
36.861
20
89.6022
30
-3.655
11
38.6007
21
89.6022
31
-3.655
62
200
0
LINE
8
Etichette
10
38.6007
20
89.6022
30
-3.655
11
39.8309
21
88.372
31
-3.655
62
200
0
LINE
8
Etichette
10
39.8309
20
88.372
30
-3.655
11
39.8309
21
86.6323
31
-3.655
62
200
0
LINE
8
Etichette
10
39.8309
20
86.6323
30
-3.655
11
38.6007
21
85.4021
31
-3.655
62
200
0
LINE
8
Etichette
10
38.6007
20
85.4021
30
-3.655
11
36.0961
21
84.8071
31
-3.655
62
200
0
CIRCLE
8
Cerchi
10
50.989
20
83.781
30
-15.777
40
3.0
62
152
0
TEXT
8
Tag
10
54.01381818181818
20
86.08554444444445
30
-15.777
40
3.5
1
4
62
6
8
Tag
0
LINE
8
Etichette
10
53.8081
20
84.8071
30
-15.777
11
54.573
21
85.4021
31
-15.777
62
200
0
LINE
8
Etichette
10
54.573
20
85.4021
30
-15.777
11
53.3428
21
86.6323
31
-15.777
62
200
0
LINE
8
Etichette
10
53.3428
20
86.6323
30
-15.777
11
53.3428
21
88.372
31
-15.777
62
200
0
LINE
8
Etichette
10
53.3428
20
88.372
30
-15.777
11
54.573
21
89.6022
31
-15.777
62
200
0
LINE
8
Etichette
10
54.573
20
89.6022
30
-15.777
11
56.3127
21
89.6022
31
-15.777
62
200
0
LINE
8
Etichette
10
56.3127
20
89.6022
30
-15.777
11
57.5429
21
88.372
31
-15.777
62
200
0
LINE
8
Etichette
10
57.5429
20
88.372
30
-15.777
11
57.5429
21
86.6323
31
-15.777
62
200
0
LINE
8
Etichette
10
57.5429
20
86.6323
30
-15.777
11
56.3127
21
85.4021
31
-15.777
62
200
0
LINE
8
Etichette
10
56.3127
20
85.4021
30
-15.777
11
53.8081
21
84.8071
31
-15.777
62
200
0
CIRCLE
8
Cerchi
10
-131.855
20
0.366
30
-19.547
40
4.0
62
152
0
TEXT
8
Tag
10
-127.89048181818181
20
3.0125444444444445
30
-19.547
40
3.5
1
5
62
6
8
Tag
0
LINE
8
Etichette
10
-128.0962
20
1.7341
30
-19.547
11
-127.3313
21
2.3291
31
-19.547
62
200
0
LINE
8
Etichette
10
-127.3313
20
2.3291
30
-19.547
11
-128.5615
21
3.5593
31
-19.547
62
200
0
LINE
8
Etichette
10
-128.5615
20
3.5593
30
-19.547
11
-128.5615
21
5.299
31
-19.547
62
200
0
LINE
8
Etichette
10
-128.5615
20
5.299
30
-19.547
11
-127.3313
21
6.5292
31
-19.547
62
200
0
LINE
8
Etichette
10
-127.3313
20
6.5292
30
-19.547
11
-125.5916
21
6.5292
31
-19.547
62
200
0
LINE
8
Etichette
10
-125.5916
20
6.5292
30
-19.547
11
-124.3614
21
5.299
31
-19.547
62
200
0
LINE
8
Etichette
10
-124.3614
20
5.299
30
-19.547
11
-124.3614
21
3.5593
31
-19.547
62
200
0
LINE
8
Etichette
10
-124.3614
20
3.5593
30
-19.547
11
-125.5916
21
2.3291
31
-19.547
62
200
0
LINE
8
Etichette
10
-125.5916
20
2.3291
30
-19.547
11
-128.0962
21
1.7341
31
-19.547
62
200
0
CIRCLE
8
Cerchi
10
-131.855
20
83.781
30
-16.537
40
4.0
62
152
0
TEXT
8
Tag
10
-127.89048181818181
20
86.42754444444445
30
-16.537
40
3.5
1
6
62
6
8
Tag
0
LINE
8
Etichette
10
-128.0962
20
85.1491
30
-16.537
11
-127.3313
21
85.7441
31
-16.537
62
200
0
LINE
8
Etichette
10
-127.3313
20
85.7441
30
-16.537
11
-128.5615
21
86.9743
31
-16.537
62
200
0
LINE
8
Etichette
10
-128.5615
20
86.9743
30
-16.537
11
-128.5615
21
88.714
31
-16.537
62
200
0
LINE
8
Etichette
10
-128.5615
20
88.714
30
-16.537
11
-127.3313
21
89.9442
31
-16.537
62
200
0
LINE
8
Etichette
10
-127.3313
20
89.9442
30
-16.537
11
-125.5916
21
89.9442
31
-16.537
62
200
0
LINE
8
Etichette
10
-125.5916
20
89.9442
30
-16.537
11
-124.3614
21
88.714
31
-16.537
62
200
0
LINE
8
Etichette
10
-124.3614
20
88.714
30
-16.537
11
-124.3614
21
86.9743
31
-16.537
62
200
0
LINE
8
Etichette
10
-124.3614
20
86.9743
30
-16.537
11
-125.5916
21
85.7441
31
-16.537
62
200
0
LINE
8
Etichette
10
-125.5916
20
85.7441
30
-16.537
11
-128.0962
21
85.1491
31
-16.537
62
200
0
CIRCLE
8
Cerchi
10
131.195
20
0.366
30
-19.547
40
4.0
62
152
0
TEXT
8
Tag
10
135.15951818181819
20
3.0125444444444445
30
-19.547
40
3.5
1
7
62
6
8
Tag
0
LINE
8
Etichette
10
134.9538
20
1.7341
30
-19.547
11
135.7187
21
2.3291
31
-19.547
62
200
0
LINE
8
Etichette
10
135.7187
20
2.3291
30
-19.547
11
134.4885
21
3.5593
31
-19.547
62
200
0
LINE
8
Etichette
10
134.4885
20
3.5593
30
-19.547
11
134.4885
21
5.299
31
-19.547
62
200
0
LINE
8
Etichette
10
134.4885
20
5.299
30
-19.547
11
135.7187
21
6.5292
31
-19.547
62
200
0
LINE
8
Etichette
10
135.7187
20
6.5292
30
-19.547
11
137.4584
21
6.5292
31
-19.547
62
200
0
LINE
8
Etichette
10
137.4584
20
6.5292
30
-19.547
11
138.6886
21
5.299
31
-19.547
62
200
0
LINE
8
Etichette
10
138.6886
20
5.299
30
-19.547
11
138.6886
21
3.5593
31
-19.547
62
200
0
LINE
8
Etichette
10
138.6886
20
3.5593
30
-19.547
11
137.4584
21
2.3291
31
-19.547
62
200
0
LINE
8
Etichette
10
137.4584
20
2.3291
30
-19.547
11
134.9538
21
1.7341
31
-19.547
62
200
0
CIRCLE
8
Cerchi
10
131.195
20
83.781
30
-16.537
40
4.0
62
152
0
TEXT
8
Tag
10
135.15951818181819
20
86.42754444444445
30
-16.537
40
3.5
1
8
62
6
8
Tag
0
LINE
8
Etichette
10
134.9538
20
85.1491
30
-16.537
11
135.7187
21
85.7441
31
-16.537
62
200
0
LINE
8
Etichette
10
135.7187
20
85.7441
30
-16.537
11
134.4885
21
86.9743
31
-16.537
62
200
0
LINE
8
Etichette
10
134.4885
20
86.9743
30
-16.537
11
134.4885
21
88.714
31
-16.537
62
200
0
LINE
8
Etichette
10
134.4885
20
88.714
30
-16.537
11
135.7187
21
89.9442
31
-16.537
62
200
0
LINE
8
Etichette
10
135.7187
20
89.9442
30
-16.537
11
137.4584
21
89.9442
31
-16.537
62
200
0
LINE
8
Etichette
10
137.4584
20
89.9442
30
-16.537
11
138.6886
21
88.714
31
-16.537
62
200
0
LINE
8
Etichette
10
138.6886
20
88.714
30
-16.537
11
138.6886
21
86.9743
31
-16.537
62
200
0
LINE
8
Etichette
10
138.6886
20
86.9743
30
-16.537
11
137.4584
21
85.7441
31
-16.537
62
200
0
LINE
8
Etichette
10
137.4584
20
85.7441
30
-16.537
11
134.9538
21
85.1491
31
-16.537
62
200
0
CIRCLE
8
Cerchi
10
-20.0
20
0.0
30
-87.235
40
5.0
62
152
0
TEXT
8
Tag
10
-15.095781818181818
20
2.9885444444444444
30
-87.235
40
3.5
1
9
62
6
8
Tag
0
LINE
8
Etichette
10
-15.3015
20
1.7101
30
-87.235
11
-14.5366
21
2.3051
31
-87.235
62
200
0
LINE
8
Etichette
10
-14.5366
20
2.3051
30
-87.235
11
-15.7668
21
3.5353
31
-87.235
62
200
0
LINE
8
Etichette
10
-15.7668
20
3.5353
30
-87.235
11
-15.7668
21
5.275
31
-87.235
62
200
0
LINE
8
Etichette
10
-15.7668
20
5.275
30
-87.235
11
-14.5366
21
6.5052
31
-87.235
62
200
0
LINE
8
Etichette
10
-14.5366
20
6.5052
30
-87.235
11
-12.7969
21
6.5052
31
-87.235
62
200
0
LINE
8
Etichette
10
-12.7969
20
6.5052
30
-87.235
11
-11.5667
21
5.275
31
-87.235
62
200
0
LINE
8
Etichette
10
-11.5667
20
5.275
30
-87.235
11
-11.5667
21
3.5353
31
-87.235
62
200
0
LINE
8
Etichette
10
-11.5667
20
3.5353
30
-87.235
11
-12.7969
21
2.3051
31
-87.235
62
200
0
LINE
8
Etichette
10
-12.7969
20
2.3051
30
-87.235
11
-15.3015
21
1.7101
31
-87.235
62
200
0
CIRCLE
8
Cerchi
10
0.0
20
-22.0
30
-87.235
40
5.0
62
152
0
TEXT
8
Tag
10
4.6922875
20
-17.78964
30
-87.235
40
3.5
1
10
62
6
8
Tag
0
LINE
8
Etichette
10
4.6985
20
-20.2899
30
-87.235
11
5.9096
21
-19.3478
31
-87.235
62
200
0
LINE
8
Etichette
10
5.9096
20
-19.3478
30
-87.235
11
3.9619
21
-17.4001
31
-87.235
62
200
0
LINE
8
Etichette
10
3.9619
20
-17.4001
30
-87.235
11
3.9619
21
-14.6456
31
-87.235
62
200
0
LINE
8
Etichette
10
3.9619
20
-14.6456
30
-87.235
11
5.9096
21
-12.6979
31
-87.235
62
200
0
LINE
8
Etichette
10
5.9096
20
-12.6979
30
-87.235
11
8.6641
21
-12.6979
31
-87.235
62
200
0
LINE
8
Etichette
10
8.6641
20
-12.6979
30
-87.235
11
10.6118
21
-14.6456
31
-87.235
62
200
0
LINE
8
Etichette
10
10.6118
20
-14.6456
30
-87.235
11
10.6118
21
-17.4001
31
-87.235
62
200
0
LINE
8
Etichette
10
10.6118
20
-17.4001
30
-87.235
11
8.6641
21
-19.3478
31
-87.235
62
200
0
LINE
8
Etichette
10
8.6641
20
-19.3478
30
-87.235
11
4.6985
21
-20.2899
31
-87.235
62
200
0
CIRCLE
8
Cerchi
10
0.0
20
22.0
30
-87.235
40
5.0
62
152
0
TEXT
8
Tag
10
4.6922875
20
26.21036
30
-87.235
40
3.5
1
11
62
6
8
Tag
0
LINE
8
Etichette
10
4.6985
20
23.7101
30
-87.235
11
5.9096
21
24.6522
31
-87.235
62
200
0
LINE
8
Etichette
10
5.9096
20
24.6522
30
-87.235
11
3.9619
21
26.5999
31
-87.235
62
200
0
LINE
8
Etichette
10
3.9619
20
26.5999
30
-87.235
11
3.9619
21
29.3544
31
-87.235
62
200
0
LINE
8
Etichette
10
3.9619
20
29.3544
30
-87.235
11
5.9096
21
31.3021
31
-87.235
62
200
0
LINE
8
Etichette
10
5.9096
20
31.3021
30
-87.235
11
8.6641
21
31.3021
31
-87.235
62
200
0
LINE
8
Etichette
10
8.6641
20
31.3021
30
-87.235
11
10.6118
21
29.3544
31
-87.235
62
200
0
LINE
8
Etichette
10
10.6118
20
29.3544
30
-87.235
11
10.6118
21
26.5999
31
-87.235
62
200
0
LINE
8
Etichette
10
10.6118
20
26.5999
30
-87.235
11
8.6641
21
24.6522
31
-87.235
62
200
0
LINE
8
Etichette
10
8.6641
20
24.6522
30
-87.235
11
4.6985
21
23.7101
31
-87.235
62
200
0
CIRCLE
8
Cerchi
10
20.0
20
0.0
30
-87.235
40
5.0
62
152
0
TEXT
8
Tag
10
24.6922875
20
4.21036
30
-87.235
40
3.5
1
12
62
6
8
Tag
0
LINE
8
Etichette
10
24.6985
20
1.7101
30
-87.235
11
25.9096
21
2.6522
31
-87.235
62
200
0
LINE
8
Etichette
10
25.9096
20
2.6522
30
-87.235
11
23.9619
21
4.5999
31
-87.235
62
200
0
LINE
8
Etichette
10
23.9619
20
4.5999
30
-87.235
11
23.9619
21
7.3544
31
-87.235
62
200
0
LINE
8
Etichette
10
23.9619
20
7.3544
30
-87.235
11
25.9096
21
9.3021
31
-87.235
62
200
0
LINE
8
Etichette
10
25.9096
20
9.3021
30
-87.235
11
28.6641
21
9.3021
31
-87.235
62
200
0
LINE
8
Etichette
10
28.6641
20
9.3021
30
-87.235
11
30.6118
21
7.3544
31
-87.235
62
200
0
LINE
8
Etichette
10
30.6118
20
7.3544
30
-87.235
11
30.6118
21
4.5999
31
-87.235
62
200
0
LINE
8
Etichette
10
30.6118
20
4.5999
30
-87.235
11
28.6641
21
2.6522
31
-87.235
62
200
0
LINE
8
Etichette
10
28.6641
20
2.6522
30
-87.235
11
24.6985
21
1.7101
31
-87.235
62
200
0
CIRCLE
8
Cerchi
10
-131.855
20
30.366
30
-12.363
40
6.0
62
152
0
TEXT
8
Tag
10
-126.22301250000001
20
34.91836
30
-12.363
40
3.5
1
13
62
6
8
Tag
0
LINE
8
Etichette
10
-126.2168
20
32.4181
30
-12.363
11
-125.0057
21
33.3602
31
-12.363
62
200
0
LINE
8
Etichette
10
-125.0057
20
33.3602
30
-12.363
11
-126.9534
21
35.3079
31
-12.363
62
200
0
LINE
8
Etichette
10
-126.9534
20
35.3079
30
-12.363
11
-126.9534
21
38.0624
31
-12.363
62
200
0
LINE
8
Etichette
10
-126.9534
20
38.0624
30
-12.363
11
-125.0057
21
40.0101
31
-12.363
62
200
0
LINE
8
Etichette
10
-125.0057
20
40.0101
30
-12.363
11
-122.2512
21
40.0101
31
-12.363
62
200
0
LINE
8
Etichette
10
-122.2512
20
40.0101
30
-12.363
11
-120.3035
21
38.0624
31
-12.363
62
200
0
LINE
8
Etichette
10
-120.3035
20
38.0624
30
-12.363
11
-120.3035
21
35.3079
31
-12.363
62
200
0
LINE
8
Etichette
10
-120.3035
20
35.3079
30
-12.363
11
-122.2512
21
33.3602
31
-12.363
62
200
0
LINE
8
Etichette
10
-122.2512
20
33.3602
30
-12.363
11
-126.2168
21
32.4181
31
-12.363
62
200
0
CIRCLE
8
Cerchi
10
-129.32
20
-81.337
30
-32.463
40
6.0
62
152
0
TEXT
8
Tag
10
-123.6880125
20
-76.78464
30
-32.463
40
3.5
1
14
62
6
8
Tag
0
LINE
8
Etichette
10
-123.6818
20
-79.2849
30
-32.463
11
-122.4707
21
-78.3428
31
-32.463
62
200
0
LINE
8
Etichette
10
-122.4707
20
-78.3428
30
-32.463
11
-124.4184
21
-76.3951
31
-32.463
62
200
0
LINE
8
Etichette
10
-124.4184
20
-76.3951
30
-32.463
11
-124.4184
21
-73.6406
31
-32.463
62
200
0
LINE
8
Etichette
10
-124.4184
20
-73.6406
30
-32.463
11
-122.4707
21
-71.6929
31
-32.463
62
200
0
LINE
8
Etichette
10
-122.4707
20
-71.6929
30
-32.463
11
-119.7162
21
-71.6929
31
-32.463
62
200
0
LINE
8
Etichette
10
-119.7162
20
-71.6929
30
-32.463
11
-117.7685
21
-73.6406
31
-32.463
62
200
0
LINE
8
Etichette
10
-117.7685
20
-73.6406
30
-32.463
11
-117.7685
21
-76.3951
31
-32.463
62
200
0
LINE
8
Etichette
10
-117.7685
20
-76.3951
30
-32.463
11
-119.7162
21
-78.3428
31
-32.463
62
200
0
LINE
8
Etichette
10
-119.7162
20
-78.3428
30
-32.463
11
-123.6818
21
-79.2849
31
-32.463
62
200
0
CIRCLE
8
Cerchi
10
-117.992
20
125.227
30
-5.859
40
6.0
62
152
0
TEXT
8
Tag
10
-112.36001250000001
20
129.77936
30
-5.859
40
3.5
1
15
62
6
8
Tag
0
LINE
8
Etichette
10
-112.3538
20
127.2791
30
-5.859
11
-111.1427
21
128.2212
31
-5.859
62
200
0
LINE
8
Etichette
10
-111.1427
20
128.2212
30
-5.859
11
-113.0904
21
130.1689
31
-5.859
62
200
0
LINE
8
Etichette
10
-113.0904
20
130.1689
30
-5.859
11
-113.0904
21
132.9234
31
-5.859
62
200
0
LINE
8
Etichette
10
-113.0904
20
132.9234
30
-5.859
11
-111.1427
21
134.8711
31
-5.859
62
200
0
LINE
8
Etichette
10
-111.1427
20
134.8711
30
-5.859
11
-108.3882
21
134.8711
31
-5.859
62
200
0
LINE
8
Etichette
10
-108.3882
20
134.8711
30
-5.859
11
-106.4405
21
132.9234
31
-5.859
62
200
0
LINE
8
Etichette
10
-106.4405
20
132.9234
30
-5.859
11
-106.4405
21
130.1689
31
-5.859
62
200
0
LINE
8
Etichette
10
-106.4405
20
130.1689
30
-5.859
11
-108.3882
21
128.2212
31
-5.859
62
200
0
LINE
8
Etichette
10
-108.3882
20
128.2212
30
-5.859
11
-112.3538
21
127.2791
31
-5.859
62
200
0
CIRCLE
8
Cerchi
10
-115.809
20
-131.312
30
-12.363
40
6.0
62
152
0
TEXT
8
Tag
10
-110.17701249999999
20
-126.75963999999999
30
-12.363
40
3.5
1
16
62
6
8
Tag
0
LINE
8
Etichette
10
-110.1708
20
-129.2599
30
-12.363
11
-108.9597
21
-128.3178
31
-12.363
62
200
0
LINE
8
Etichette
10
-108.9597
20
-128.3178
30
-12.363
11
-110.9074
21
-126.3701
31
-12.363
62
200
0
LINE
8
Etichette
10
-110.9074
20
-126.3701
30
-12.363
11
-110.9074
21
-123.6156
31
-12.363
62
200
0
LINE
8
Etichette
10
-110.9074
20
-123.6156
30
-12.363
11
-108.9597
21
-121.6679
31
-12.363
62
200
0
LINE
8
Etichette
10
-108.9597
20
-121.6679
30
-12.363
11
-106.2052
21
-121.6679
31
-12.363
62
200
0
LINE
8
Etichette
10
-106.2052
20
-121.6679
30
-12.363
11
-104.2575
21
-123.6156
31
-12.363
62
200
0
LINE
8
Etichette
10
-104.2575
20
-123.6156
30
-12.363
11
-104.2575
21
-126.3701
31
-12.363
62
200
0
LINE
8
Etichette
10
-104.2575
20
-126.3701
30
-12.363
11
-106.2052
21
-128.3178
31
-12.363
62
200
0
LINE
8
Etichette
10
-106.2052
20
-128.3178
30
-12.363
11
-110.1708
21
-129.2599
31
-12.363
62
200
0
CIRCLE
8
Cerchi
10
-41.855
20
-134.634
30
-12.363
40
6.0
62
152
0
TEXT
8
Tag
10
-36.2230125
20
-130.08164000000002
30
-12.363
40
3.5
1
17
62
6
8
Tag
0
LINE
8
Etichette
10
-36.2168
20
-132.5819
30
-12.363
11
-35.0057
21
-131.6398
31
-12.363
62
200
0
LINE
8
Etichette
10
-35.0057
20
-131.6398
30
-12.363
11
-36.9534
21
-129.6921
31
-12.363
62
200
0
LINE
8
Etichette
10
-36.9534
20
-129.6921
30
-12.363
11
-36.9534
21
-126.9376
31
-12.363
62
200
0
LINE
8
Etichette
10
-36.9534
20
-126.9376
30
-12.363
11
-35.0057
21
-124.9899
31
-12.363
62
200
0
LINE
8
Etichette
10
-35.0057
20
-124.9899
30
-12.363
11
-32.2512
21
-124.9899
31
-12.363
62
200
0
LINE
8
Etichette
10
-32.2512
20
-124.9899
30
-12.363
11
-30.3035
21
-126.9376
31
-12.363
62
200
0
LINE
8
Etichette
10
-30.3035
20
-126.9376
30
-12.363
11
-30.3035
21
-129.6921
31
-12.363
62
200
0
LINE
8
Etichette
10
-30.3035
20
-129.6921
30
-12.363
11
-32.2512
21
-131.6398
31
-12.363
62
200
0
LINE
8
Etichette
10
-32.2512
20
-131.6398
30
-12.363
11
-36.2168
21
-132.5819
31
-12.363
62
200
0
CIRCLE
8
Cerchi
10
-21.855
20
126.366
30
9.347
40
6.0
62
152
0
TEXT
8
Tag
10
-16.2230125
20
130.91835999999998
30
9.347
40
3.5
1
18
62
6
8
Tag
0
LINE
8
Etichette
10
-16.2168
20
128.4181
30
9.347
11
-15.0057
21
129.3602
31
9.347
62
200
0
LINE
8
Etichette
10
-15.0057
20
129.3602
30
9.347
11
-16.9534
21
131.3079
31
9.347
62
200
0
LINE
8
Etichette
10
-16.9534
20
131.3079
30
9.347
11
-16.9534
21
134.0624
31
9.347
62
200
0
LINE
8
Etichette
10
-16.9534
20
134.0624
30
9.347
11
-15.0057
21
136.0101
31
9.347
62
200
0
LINE
8
Etichette
10
-15.0057
20
136.0101
30
9.347
11
-12.2512
21
136.0101
31
9.347
62
200
0
LINE
8
Etichette
10
-12.2512
20
136.0101
30
9.347
11
-10.3035
21
134.0624
31
9.347
62
200
0
LINE
8
Etichette
10
-10.3035
20
134.0624
30
9.347
11
-10.3035
21
131.3079
31
9.347
62
200
0
LINE
8
Etichette
10
-10.3035
20
131.3079
30
9.347
11
-12.2512
21
129.3602
31
9.347
62
200
0
LINE
8
Etichette
10
-12.2512
20
129.3602
30
9.347
11
-16.2168
21
128.4181
31
9.347
62
200
0
CIRCLE
8
Cerchi
10
44.403
20
-134.611
30
-25.428
40
6.0
62
152
0
TEXT
8
Tag
10
50.0349875
20
-130.05864
30
-25.428
40
3.5
1
19
62
6
8
Tag
0
LINE
8
Etichette
10
50.0412
20
-132.5589
30
-25.428
11
51.2523
21
-131.6168
31
-25.428
62
200
0
LINE
8
Etichette
10
51.2523
20
-131.6168
30
-25.428
11
49.3046
21
-129.6691
31
-25.428
62
200
0
LINE
8
Etichette
10
49.3046
20
-129.6691
30
-25.428
11
49.3046
21
-126.9146
31
-25.428
62
200
0
LINE
8
Etichette
10
49.3046
20
-126.9146
30
-25.428
11
51.2523
21
-124.9669
31
-25.428
62
200
0
LINE
8
Etichette
10
51.2523
20
-124.9669
30
-25.428
11
54.0068
21
-124.9669
31
-25.428
62
200
0
LINE
8
Etichette
10
54.0068
20
-124.9669
30
-25.428
11
55.9545
21
-126.9146
31
-25.428
62
200
0
LINE
8
Etichette
10
55.9545
20
-126.9146
30
-25.428
11
55.9545
21
-129.6691
31
-25.428
62
200
0
LINE
8
Etichette
10
55.9545
20
-129.6691
30
-25.428
11
54.0068
21
-131.6168
31
-25.428
62
200
0
LINE
8
Etichette
10
54.0068
20
-131.6168
30
-25.428
11
50.0412
21
-132.5589
31
-25.428
62
200
0
CIRCLE
8
Cerchi
10
77.802
20
126.768
30
-12.363
40
6.0
62
152
0
TEXT
8
Tag
10
83.4339875
20
131.32036
30
-12.363
40
3.5
1
20
62
6
8
Tag
0
LINE
8
Etichette
10
83.4402
20
128.8201
30
-12.363
11
84.6513
21
129.7622
31
-12.363
62
200
0
LINE
8
Etichette
10
84.6513
20
129.7622
30
-12.363
11
82.7036
21
131.7099
31
-12.363
62
200
0
LINE
8
Etichette
10
82.7036
20
131.7099
30
-12.363
11
82.7036
21
134.4644
31
-12.363
62
200
0
LINE
8
Etichette
10
82.7036
20
134.4644
30
-12.363
11
84.6513
21
136.4121
31
-12.363
62
200
0
LINE
8
Etichette
10
84.6513
20
136.4121
30
-12.363
11
87.4058
21
136.4121
31
-12.363
62
200
0
LINE
8
Etichette
10
87.4058
20
136.4121
30
-12.363
11
89.3535
21
134.4644
31
-12.363
62
200
0
LINE
8
Etichette
10
89.3535
20
134.4644
30
-12.363
11
89.3535
21
131.7099
31
-12.363
62
200
0
LINE
8
Etichette
10
89.3535
20
131.7099
30
-12.363
11
87.4058
21
129.7622
31
-12.363
62
200
0
LINE
8
Etichette
10
87.4058
20
129.7622
30
-12.363
11
83.4402
21
128.8201
31
-12.363
62
200
0
CIRCLE
8
Cerchi
10
131.189
20
-134.634
30
0.2
40
6.0
62
152
0
TEXT
8
Tag
10
136.8209875
20
-130.08164000000002
30
0.2
40
3.5
1
21
62
6
8
Tag
0
LINE
8
Etichette
10
136.8272
20
-132.5819
30
0.2
11
138.0383
21
-131.6398
31
0.2
62
200
0
LINE
8
Etichette
10
138.0383
20
-131.6398
30
0.2
11
136.0906
21
-129.6921
31
0.2
62
200
0
LINE
8
Etichette
10
136.0906
20
-129.6921
30
0.2
11
136.0906
21
-126.9376
31
0.2
62
200
0
LINE
8
Etichette
10
136.0906
20
-126.9376
30
0.2
11
138.0383
21
-124.9899
31
0.2
62
200
0
LINE
8
Etichette
10
138.0383
20
-124.9899
30
0.2
11
140.7928
21
-124.9899
31
0.2
62
200
0
LINE
8
Etichette
10
140.7928
20
-124.9899
30
0.2
11
142.7405
21
-126.9376
31
0.2
62
200
0
LINE
8
Etichette
10
142.7405
20
-126.9376
30
0.2
11
142.7405
21
-129.6921
31
0.2
62
200
0
LINE
8
Etichette
10
142.7405
20
-129.6921
30
0.2
11
140.7928
21
-131.6398
31
0.2
62
200
0
LINE
8
Etichette
10
140.7928
20
-131.6398
30
0.2
11
136.8272
21
-132.5819
31
0.2
62
200
0
CIRCLE
8
Cerchi
10
131.189
20
-54.634
30
-12.363
40
6.0
62
152
0
TEXT
8
Tag
10
136.8209875
20
-50.08164
30
-12.363
40
3.5
1
22
62
6
8
Tag
0
LINE
8
Etichette
10
136.8272
20
-52.5819
30
-12.363
11
138.0383
21
-51.6398
31
-12.363
62
200
0
LINE
8
Etichette
10
138.0383
20
-51.6398
30
-12.363
11
136.0906
21
-49.6921
31
-12.363
62
200
0
LINE
8
Etichette
10
136.0906
20
-49.6921
30
-12.363
11
136.0906
21
-46.9376
31
-12.363
62
200
0
LINE
8
Etichette
10
136.0906
20
-46.9376
30
-12.363
11
138.0383
21
-44.9899
31
-12.363
62
200
0
LINE
8
Etichette
10
138.0383
20
-44.9899
30
-12.363
11
140.7928
21
-44.9899
31
-12.363
62
200
0
LINE
8
Etichette
10
140.7928
20
-44.9899
30
-12.363
11
142.7405
21
-46.9376
31
-12.363
62
200
0
LINE
8
Etichette
10
142.7405
20
-46.9376
30
-12.363
11
142.7405
21
-49.6921
31
-12.363
62
200
0
LINE
8
Etichette
10
142.7405
20
-49.6921
30
-12.363
11
140.7928
21
-51.6398
31
-12.363
62
200
0
LINE
8
Etichette
10
140.7928
20
-51.6398
30
-12.363
11
136.8272
21
-52.5819
31
-12.363
62
200
0
CIRCLE
8
Cerchi
10
131.189
20
40.366
30
-12.363
40
6.0
62
152
0
TEXT
8
Tag
10
136.8209875
20
44.91836
30
-12.363
40
3.5
1
23
62
6
8
Tag
0
LINE
8
Etichette
10
136.8272
20
42.4181
30
-12.363
11
138.0383
21
43.3602
31
-12.363
62
200
0
LINE
8
Etichette
10
138.0383
20
43.3602
30
-12.363
11
136.0906
21
45.3079
31
-12.363
62
200
0
LINE
8
Etichette
10
136.0906
20
45.3079
30
-12.363
11
136.0906
21
48.0624
31
-12.363
62
200
0
LINE
8
Etichette
10
136.0906
20
48.0624
30
-12.363
11
138.0383
21
50.0101
31
-12.363
62
200
0
LINE
8
Etichette
10
138.0383
20
50.0101
30
-12.363
11
140.7928
21
50.0101
31
-12.363
62
200
0
LINE
8
Etichette
10
140.7928
20
50.0101
30
-12.363
11
142.7405
21
48.0624
31
-12.363
62
200
0
LINE
8
Etichette
10
142.7405
20
48.0624
30
-12.363
11
142.7405
21
45.3079
31
-12.363
62
200
0
LINE
8
Etichette
10
142.7405
20
45.3079
30
-12.363
11
140.7928
21
43.3602
31
-12.363
62
200
0
LINE
8
Etichette
10
140.7928
20
43.3602
30
-12.363
11
136.8272
21
42.4181
31
-12.363
62
200
0
CIRCLE
8
Cerchi
10
131.189
20
126.366
30
-6.333
40
6.0
62
152
0
TEXT
8
Tag
10
136.8209875
20
130.91835999999998
30
-6.333
40
3.5
1
24
62
6
8
Tag
0
LINE
8
Etichette
10
136.8272
20
128.4181
30
-6.333
11
138.0383
21
129.3602
31
-6.333
62
200
0
LINE
8
Etichette
10
138.0383
20
129.3602
30
-6.333
11
136.0906
21
131.3079
31
-6.333
62
200
0
LINE
8
Etichette
10
136.0906
20
131.3079
30
-6.333
11
136.0906
21
134.0624
31
-6.333
62
200
0
LINE
8
Etichette
10
136.0906
20
134.0624
30
-6.333
11
138.0383
21
136.0101
31
-6.333
62
200
0
LINE
8
Etichette
10
138.0383
20
136.0101
30
-6.333
11
140.7928
21
136.0101
31
-6.333
62
200
0
LINE
8
Etichette
10
140.7928
20
136.0101
30
-6.333
11
142.7405
21
134.0624
31
-6.333
62
200
0
LINE
8
Etichette
10
142.7405
20
134.0624
30
-6.333
11
142.7405
21
131.3079
31
-6.333
62
200
0
LINE
8
Etichette
10
142.7405
20
131.3079
30
-6.333
11
140.7928
21
129.3602
31
-6.333
62
200
0
LINE
8
Etichette
10
140.7928
20
129.3602
30
-6.333
11
136.8272
21
128.4181
31
-6.333
62
200
0
CIRCLE
8
Cerchi
10
-125.0
20
-200.0
30
0.0
40
8.0
62
152
0
TEXT
8
Tag
10
-117.48861249999999
20
-194.76354
30
0.0
40
3.5
1
25
62
6
8
Tag
0
LINE
8
Etichette
10
-117.4825
20
-197.2638
30
0.0
11
-116.2713
21
-196.3217
31
0.0
62
200
0
LINE
8
Etichette
10
-116.2713
20
-196.3217
30
0.0
11
-118.219
21
-194.374
31
0.0
62
200
0
LINE
8
Etichette
10
-118.219
20
-194.374
30
0.0
11
-118.219
21
-191.6195
31
0.0
62
200
0
LINE
8
Etichette
10
-118.219
20
-191.6195
30
0.0
11
-116.2713
21
-189.6718
31
0.0
62
200
0
LINE
8
Etichette
10
-116.2713
20
-189.6718
30
0.0
11
-113.5168
21
-189.6718
31
0.0
62
200
0
LINE
8
Etichette
10
-113.5168
20
-189.6718
30
0.0
11
-111.5691
21
-191.6195
31
0.0
62
200
0
LINE
8
Etichette
10
-111.5691
20
-191.6195
30
0.0
11
-111.5691
21
-194.374
31
0.0
62
200
0
LINE
8
Etichette
10
-111.5691
20
-194.374
30
0.0
11
-113.5168
21
-196.3217
31
0.0
62
200
0
LINE
8
Etichette
10
-113.5168
20
-196.3217
30
0.0
11
-117.4825
21
-197.2638
31
0.0
62
200
0
CIRCLE
8
Cerchi
10
-125.0
20
200.0
30
0.0
40
8.0
62
152
0
TEXT
8
Tag
10
-117.48861249999999
20
205.23646
30
0.0
40
3.5
1
26
62
6
8
Tag
0
LINE
8
Etichette
10
-117.4825
20
202.7362
30
0.0
11
-116.2713
21
203.6783
31
0.0
62
200
0
LINE
8
Etichette
10
-116.2713
20
203.6783
30
0.0
11
-118.219
21
205.626
31
0.0
62
200
0
LINE
8
Etichette
10
-118.219
20
205.626
30
0.0
11
-118.219
21
208.3805
31
0.0
62
200
0
LINE
8
Etichette
10
-118.219
20
208.3805
30
0.0
11
-116.2713
21
210.3282
31
0.0
62
200
0
LINE
8
Etichette
10
-116.2713
20
210.3282
30
0.0
11
-113.5168
21
210.3282
31
0.0
62
200
0
LINE
8
Etichette
10
-113.5168
20
210.3282
30
0.0
11
-111.5691
21
208.3805
31
0.0
62
200
0
LINE
8
Etichette
10
-111.5691
20
208.3805
30
0.0
11
-111.5691
21
205.626
31
0.0
62
200
0
LINE
8
Etichette
10
-111.5691
20
205.626
30
0.0
11
-113.5168
21
203.6783
31
0.0
62
200
0
LINE
8
Etichette
10
-113.5168
20
203.6783
30
0.0
11
-117.4825
21
202.7362
31
0.0
62
200
0
CIRCLE
8
Cerchi
10
125.0
20
-200.0
30
0.0
40
8.0
62
152
0
TEXT
8
Tag
10
132.5113875
20
-194.76354
30
0.0
40
3.5
1
27
62
6
8
Tag
0
LINE
8
Etichette
10
132.5175
20
-197.2638
30
0.0
11
133.7287
21
-196.3217
31
0.0
62
200
0
LINE
8
Etichette
10
133.7287
20
-196.3217
30
0.0
11
131.781
21
-194.374
31
0.0
62
200
0
LINE
8
Etichette
10
131.781
20
-194.374
30
0.0
11
131.781
21
-191.6195
31
0.0
62
200
0
LINE
8
Etichette
10
131.781
20
-191.6195
30
0.0
11
133.7287
21
-189.6718
31
0.0
62
200
0
LINE
8
Etichette
10
133.7287
20
-189.6718
30
0.0
11
136.4832
21
-189.6718
31
0.0
62
200
0
LINE
8
Etichette
10
136.4832
20
-189.6718
30
0.0
11
138.4309
21
-191.6195
31
0.0
62
200
0
LINE
8
Etichette
10
138.4309
20
-191.6195
30
0.0
11
138.4309
21
-194.374
31
0.0
62
200
0
LINE
8
Etichette
10
138.4309
20
-194.374
30
0.0
11
136.4832
21
-196.3217
31
0.0
62
200
0
LINE
8
Etichette
10
136.4832
20
-196.3217
30
0.0
11
132.5175
21
-197.2638
31
0.0
62
200
0
CIRCLE
8
Cerchi
10
125.0
20
200.0
30
0.0
40
8.0
62
152
0
TEXT
8
Tag
10
132.5113875
20
205.23646
30
0.0
40
3.5
1
28
62
6
8
Tag
0
LINE
8
Etichette
10
132.5175
20
202.7362
30
0.0
11
133.7287
21
203.6783
31
0.0
62
200
0
LINE
8
Etichette
10
133.7287
20
203.6783
30
0.0
11
131.781
21
205.626
31
0.0
62
200
0
LINE
8
Etichette
10
131.781
20
205.626
30
0.0
11
131.781
21
208.3805
31
0.0
62
200
0
LINE
8
Etichette
10
131.781
20
208.3805
30
0.0
11
133.7287
21
210.3282
31
0.0
62
200
0
LINE
8
Etichette
10
133.7287
20
210.3282
30
0.0
11
136.4832
21
210.3282
31
0.0
62
200
0
LINE
8
Etichette
10
136.4832
20
210.3282
30
0.0
11
138.4309
21
208.3805
31
0.0
62
200
0
LINE
8
Etichette
10
138.4309
20
208.3805
30
0.0
11
138.4309
21
205.626
31
0.0
62
200
0
LINE
8
Etichette
10
138.4309
20
205.626
30
0.0
11
136.4832
21
203.6783
31
0.0
62
200
0
LINE
8
Etichette
10
136.4832
20
203.6783
30
0.0
11
132.5175
21
202.7362
31
0.0
62
200
0
LINE
8
Cerchi
10
-131.855
20
0
LINE
8
0
11
131.195
21
0
62
102
0
LINE
8
Cerchi
10
0
20
0
LINE
8
200.0
11
0
21
-200.0
62
102
0
ENDSEC
0
EOF