999
File "test2.dxf" esportato tramite "Hole Table Generator" by "Kill Goliath"
999
Powered by Davide Fasolo 2018
0
SECTION
2
ENTITIES
0
LINE
8
Cerchi
10
-164.5
20
0
11
166.0
21
0
62
102
0
LINE
8
Cerchi
10
0
20
362.0
11
0
21
12.915
62
102
0
CIRCLE
8
Cerchi
10
44.24
20
344.356
30
-22.5
40
2.0
62
152
0
LINE
8
Etichette
10
46.1194
20
345.04
30
-22.5
11
47.1393
21
345.8333
31
-22.5
62
200
0
LINE
8
Etichette
10
47.1393
20
345.8333
30
-22.5
11
45.4991
21
347.4735
31
-22.5
62
200
0
LINE
8
Etichette
10
45.4991
20
347.4735
30
-22.5
11
45.4991
21
349.7931
31
-22.5
62
200
0
LINE
8
Etichette
10
45.4991
20
349.7931
30
-22.5
11
47.1393
21
351.4333
31
-22.5
62
200
0
LINE
8
Etichette
10
47.1393
20
351.4333
30
-22.5
11
49.4589
21
351.4333
31
-22.5
62
200
0
LINE
8
Etichette
10
49.4589
20
351.4333
30
-22.5
11
51.0991
21
349.7931
31
-22.5
62
200
0
LINE
8
Etichette
10
51.0991
20
349.7931
30
-22.5
11
51.0991
21
347.4735
31
-22.5
62
200
0
LINE
8
Etichette
10
51.0991
20
347.4735
30
-22.5
11
49.4589
21
345.8333
31
-22.5
62
200
0
LINE
8
Etichette
10
49.4589
20
345.8333
30
-22.5
11
46.1194
21
345.04
31
-22.5
62
200
0
TEXT
8
Tag
10
46.212232560713176
20
346.8833
30
-22.5
40
3.5
1
1
62
6
0
CIRCLE
8
Cerchi
10
112.849
20
264.871
30
-22.5
40
2.0
62
152
0
LINE
8
Etichette
10
114.7284
20
265.555
30
-22.5
11
115.7483
21
266.3483
31
-22.5
62
200
0
LINE
8
Etichette
10
115.7483
20
266.3483
30
-22.5
11
114.1081
21
267.9885
31
-22.5
62
200
0
LINE
8
Etichette
10
114.1081
20
267.9885
30
-22.5
11
114.1081
21
270.3081
31
-22.5
62
200
0
LINE
8
Etichette
10
114.1081
20
270.3081
30
-22.5
11
115.7483
21
271.9483
31
-22.5
62
200
0
LINE
8
Etichette
10
115.7483
20
271.9483
30
-22.5
11
118.0679
21
271.9483
31
-22.5
62
200
0
LINE
8
Etichette
10
118.0679
20
271.9483
30
-22.5
11
119.7081
21
270.3081
31
-22.5
62
200
0
LINE
8
Etichette
10
119.7081
20
270.3081
30
-22.5
11
119.7081
21
267.9885
31
-22.5
62
200
0
LINE
8
Etichette
10
119.7081
20
267.9885
30
-22.5
11
118.0679
21
266.3483
31
-22.5
62
200
0
LINE
8
Etichette
10
118.0679
20
266.3483
30
-22.5
11
114.7284
21
265.555
31
-22.5
62
200
0
TEXT
8
Tag
10
114.82123256071317
20
267.3983
30
-22.5
40
3.5
1
2
62
6
0
CIRCLE
8
Cerchi
10
-158.87
20
103.006
30
-22.5
40
3.0
62
152
0
LINE
8
Etichette
10
-156.0509
20
104.0321
30
-22.5
11
-155.031
21
104.8254
31
-22.5
62
200
0
LINE
8
Etichette
10
-155.031
20
104.8254
30
-22.5
11
-156.6712
21
106.4656
31
-22.5
62
200
0
LINE
8
Etichette
10
-156.6712
20
106.4656
30
-22.5
11
-156.6712
21
108.7852
31
-22.5
62
200
0
LINE
8
Etichette
10
-156.6712
20
108.7852
30
-22.5
11
-155.031
21
110.4254
31
-22.5
62
200
0
LINE
8
Etichette
10
-155.031
20
110.4254
30
-22.5
11
-152.7114
21
110.4254
31
-22.5
62
200
0
LINE
8
Etichette
10
-152.7114
20
110.4254
30
-22.5
11
-151.0712
21
108.7852
31
-22.5
62
200
0
LINE
8
Etichette
10
-151.0712
20
108.7852
30
-22.5
11
-151.0712
21
106.4656
31
-22.5
62
200
0
LINE
8
Etichette
10
-151.0712
20
106.4656
30
-22.5
11
-152.7114
21
104.8254
31
-22.5
62
200
0
LINE
8
Etichette
10
-152.7114
20
104.8254
30
-22.5
11
-156.0509
21
104.0321
31
-22.5
62
200
0
TEXT
8
Tag
10
-155.95806743928682
20
105.8754
30
-22.5
40
3.5
1
3
62
6
0
CIRCLE
8
Cerchi
10
-105.47
20
213.795
30
-9.014
40
3.0
62
152
0
LINE
8
Etichette
10
-102.6509
20
214.8211
30
-9.014
11
-101.631
21
215.6144
31
-9.014
62
200
0
LINE
8
Etichette
10
-101.631
20
215.6144
30
-9.014
11
-103.2712
21
217.2546
31
-9.014
62
200
0
LINE
8
Etichette
10
-103.2712
20
217.2546
30
-9.014
11
-103.2712
21
219.5742
31
-9.014
62
200
0
LINE
8
Etichette
10
-103.2712
20
219.5742
30
-9.014
11
-101.631
21
221.2144
31
-9.014
62
200
0
LINE
8
Etichette
10
-101.631
20
221.2144
30
-9.014
11
-99.3114
21
221.2144
31
-9.014
62
200
0
LINE
8
Etichette
10
-99.3114
20
221.2144
30
-9.014
11
-97.6712
21
219.5742
31
-9.014
62
200
0
LINE
8
Etichette
10
-97.6712
20
219.5742
30
-9.014
11
-97.6712
21
217.2546
31
-9.014
62
200
0
LINE
8
Etichette
10
-97.6712
20
217.2546
30
-9.014
11
-99.3114
21
215.6144
31
-9.014
62
200
0
LINE
8
Etichette
10
-99.3114
20
215.6144
30
-9.014
11
-102.6509
21
214.8211
31
-9.014
62
200
0
TEXT
8
Tag
10
-102.55806743928682
20
216.6644
30
-9.014
40
3.5
1
4
62
6
0
CIRCLE
8
Cerchi
10
-74.19
20
141.883
30
13.805
40
3.0
62
152
0
LINE
8
Etichette
10
-71.3709
20
142.9091
30
13.805
11
-70.351
21
143.7024
31
13.805
62
200
0
LINE
8
Etichette
10
-70.351
20
143.7024
30
13.805
11
-71.9912
21
145.3426
31
13.805
62
200
0
LINE
8
Etichette
10
-71.9912
20
145.3426
30
13.805
11
-71.9912
21
147.6622
31
13.805
62
200
0
LINE
8
Etichette
10
-71.9912
20
147.6622
30
13.805
11
-70.351
21
149.3024
31
13.805
62
200
0
LINE
8
Etichette
10
-70.351
20
149.3024
30
13.805
11
-68.0314
21
149.3024
31
13.805
62
200
0
LINE
8
Etichette
10
-68.0314
20
149.3024
30
13.805
11
-66.3912
21
147.6622
31
13.805
62
200
0
LINE
8
Etichette
10
-66.3912
20
147.6622
30
13.805
11
-66.3912
21
145.3426
31
13.805
62
200
0
LINE
8
Etichette
10
-66.3912
20
145.3426
30
13.805
11
-68.0314
21
143.7024
31
13.805
62
200
0
LINE
8
Etichette
10
-68.0314
20
143.7024
30
13.805
11
-71.3709
21
142.9091
31
13.805
62
200
0
TEXT
8
Tag
10
-71.27806743928683
20
144.7524
30
13.805
40
3.5
1
5
62
6
0
CIRCLE
8
Cerchi
10
-49.479
20
246.191
30
-5.262
40
3.0
62
152
0
LINE
8
Etichette
10
-46.6599
20
247.2171
30
-5.262
11
-45.64
21
248.0104
31
-5.262
62
200
0
LINE
8
Etichette
10
-45.64
20
248.0104
30
-5.262
11
-47.2802
21
249.6506
31
-5.262
62
200
0
LINE
8
Etichette
10
-47.2802
20
249.6506
30
-5.262
11
-47.2802
21
251.9702
31
-5.262
62
200
0
LINE
8
Etichette
10
-47.2802
20
251.9702
30
-5.262
11
-45.64
21
253.6104
31
-5.262
62
200
0
LINE
8
Etichette
10
-45.64
20
253.6104
30
-5.262
11
-43.3204
21
253.6104
31
-5.262
62
200
0
LINE
8
Etichette
10
-43.3204
20
253.6104
30
-5.262
11
-41.6802
21
251.9702
31
-5.262
62
200
0
LINE
8
Etichette
10
-41.6802
20
251.9702
30
-5.262
11
-41.6802
21
249.6506
31
-5.262
62
200
0
LINE
8
Etichette
10
-41.6802
20
249.6506
30
-5.262
11
-43.3204
21
248.0104
31
-5.262
62
200
0
LINE
8
Etichette
10
-43.3204
20
248.0104
30
-5.262
11
-46.6599
21
247.2171
31
-5.262
62
200
0
TEXT
8
Tag
10
-46.56706743928682
20
249.0604
30
-5.262
40
3.5
1
6
62
6
0
CIRCLE
8
Cerchi
10
-0.924
20
339.363
30
-13.202
40
3.0
62
152
0
LINE
8
Etichette
10
1.8951
20
340.3891
30
-13.202
11
2.915
21
341.1824
31
-13.202
62
200
0
LINE
8
Etichette
10
2.915
20
341.1824
30
-13.202
11
1.2748
21
342.8226
31
-13.202
62
200
0
LINE
8
Etichette
10
1.2748
20
342.8226
30
-13.202
11
1.2748
21
345.1422
31
-13.202
62
200
0
LINE
8
Etichette
10
1.2748
20
345.1422
30
-13.202
11
2.915
21
346.7824
31
-13.202
62
200
0
LINE
8
Etichette
10
2.915
20
346.7824
30
-13.202
11
5.2346
21
346.7824
31
-13.202
62
200
0
LINE
8
Etichette
10
5.2346
20
346.7824
30
-13.202
11
6.8748
21
345.1422
31
-13.202
62
200
0
LINE
8
Etichette
10
6.8748
20
345.1422
30
-13.202
11
6.8748
21
342.8226
31
-13.202
62
200
0
LINE
8
Etichette
10
6.8748
20
342.8226
30
-13.202
11
5.2346
21
341.1824
31
-13.202
62
200
0
LINE
8
Etichette
10
5.2346
20
341.1824
30
-13.202
11
1.8951
21
340.3891
31
-13.202
62
200
0
TEXT
8
Tag
10
1.9879325607131806
20
342.23240000000004
30
-13.202
40
3.5
1
7
62
6
0
CIRCLE
8
Cerchi
10
20.576
20
197.248
30
-5.265
40
3.0
62
152
0
LINE
8
Etichette
10
23.3951
20
198.2741
30
-5.265
11
24.415
21
199.0674
31
-5.265
62
200
0
LINE
8
Etichette
10
24.415
20
199.0674
30
-5.265
11
22.7748
21
200.7076
31
-5.265
62
200
0
LINE
8
Etichette
10
22.7748
20
200.7076
30
-5.265
11
22.7748
21
203.0272
31
-5.265
62
200
0
LINE
8
Etichette
10
22.7748
20
203.0272
30
-5.265
11
24.415
21
204.6674
31
-5.265
62
200
0
LINE
8
Etichette
10
24.415
20
204.6674
30
-5.265
11
26.7346
21
204.6674
31
-5.265
62
200
0
LINE
8
Etichette
10
26.7346
20
204.6674
30
-5.265
11
28.3748
21
203.0272
31
-5.265
62
200
0
LINE
8
Etichette
10
28.3748
20
203.0272
30
-5.265
11
28.3748
21
200.7076
31
-5.265
62
200
0
LINE
8
Etichette
10
28.3748
20
200.7076
30
-5.265
11
26.7346
21
199.0674
31
-5.265
62
200
0
LINE
8
Etichette
10
26.7346
20
199.0674
30
-5.265
11
23.3951
21
198.2741
31
-5.265
62
200
0
TEXT
8
Tag
10
23.48793256071318
20
200.1174
30
-5.265
40
3.5
1
8
62
6
0
CIRCLE
8
Cerchi
10
25.036
20
309.405
30
-7.765
40
3.0
62
152
0
LINE
8
Etichette
10
27.8551
20
310.4311
30
-7.765
11
28.875
21
311.2244
31
-7.765
62
200
0
LINE
8
Etichette
10
28.875
20
311.2244
30
-7.765
11
27.2348
21
312.8646
31
-7.765
62
200
0
LINE
8
Etichette
10
27.2348
20
312.8646
30
-7.765
11
27.2348
21
315.1842
31
-7.765
62
200
0
LINE
8
Etichette
10
27.2348
20
315.1842
30
-7.765
11
28.875
21
316.8244
31
-7.765
62
200
0
LINE
8
Etichette
10
28.875
20
316.8244
30
-7.765
11
31.1946
21
316.8244
31
-7.765
62
200
0
LINE
8
Etichette
10
31.1946
20
316.8244
30
-7.765
11
32.8348
21
315.1842
31
-7.765
62
200
0
LINE
8
Etichette
10
32.8348
20
315.1842
30
-7.765
11
32.8348
21
312.8646
31
-7.765
62
200
0
LINE
8
Etichette
10
32.8348
20
312.8646
30
-7.765
11
31.1946
21
311.2244
31
-7.765
62
200
0
LINE
8
Etichette
10
31.1946
20
311.2244
30
-7.765
11
27.8551
21
310.4311
31
-7.765
62
200
0
TEXT
8
Tag
10
27.94793256071318
20
312.2744
30
-7.765
40
3.5
1
9
62
6
0
CIRCLE
8
Cerchi
10
34.89
20
89.709
30
-5.265
40
3.0
62
152
0
LINE
8
Etichette
10
37.7091
20
90.7351
30
-5.265
11
39.0477
21
91.7764
31
-5.265
62
200
0
LINE
8
Etichette
10
39.0477
20
91.7764
30
-5.265
11
36.8949
21
93.9292
31
-5.265
62
200
0
LINE
8
Etichette
10
36.8949
20
93.9292
30
-5.265
11
36.8949
21
96.9737
31
-5.265
62
200
0
LINE
8
Etichette
10
36.8949
20
96.9737
30
-5.265
11
39.0477
21
99.1265
31
-5.265
62
200
0
LINE
8
Etichette
10
39.0477
20
99.1265
30
-5.265
11
42.0922
21
99.1265
31
-5.265
62
200
0
LINE
8
Etichette
10
42.0922
20
99.1265
30
-5.265
11
44.245
21
96.9737
31
-5.265
62
200
0
LINE
8
Etichette
10
44.245
20
96.9737
30
-5.265
11
44.245
21
93.9292
31
-5.265
62
200
0
LINE
8
Etichette
10
44.245
20
93.9292
30
-5.265
11
42.0922
21
91.7764
31
-5.265
62
200
0
LINE
8
Etichette
10
42.0922
20
91.7764
30
-5.265
11
37.7091
21
90.7351
31
-5.265
62
200
0
TEXT
8
Tag
10
37.663752355472305
20
93.70145
30
-5.265
40
3.5
1
10
62
6
0
CIRCLE
8
Cerchi
10
77.161
20
242.656
30
-5.265
40
3.0
62
152
0
LINE
8
Etichette
10
79.9801
20
243.6821
30
-5.265
11
81.3187
21
244.7234
31
-5.265
62
200
0
LINE
8
Etichette
10
81.3187
20
244.7234
30
-5.265
11
79.1659
21
246.8762
31
-5.265
62
200
0
LINE
8
Etichette
10
79.1659
20
246.8762
30
-5.265
11
79.1659
21
249.9207
31
-5.265
62
200
0
LINE
8
Etichette
10
79.1659
20
249.9207
30
-5.265
11
81.3187
21
252.0735
31
-5.265
62
200
0
LINE
8
Etichette
10
81.3187
20
252.0735
30
-5.265
11
84.3632
21
252.0735
31
-5.265
62
200
0
LINE
8
Etichette
10
84.3632
20
252.0735
30
-5.265
11
86.516
21
249.9207
31
-5.265
62
200
0
LINE
8
Etichette
10
86.516
20
249.9207
30
-5.265
11
86.516
21
246.8762
31
-5.265
62
200
0
LINE
8
Etichette
10
86.516
20
246.8762
30
-5.265
11
84.3632
21
244.7234
31
-5.265
62
200
0
LINE
8
Etichette
10
84.3632
20
244.7234
30
-5.265
11
79.9801
21
243.6821
31
-5.265
62
200
0
TEXT
8
Tag
10
79.9347523554723
20
246.64845000000003
30
-5.265
40
3.5
1
11
62
6
0
CIRCLE
8
Cerchi
10
106.942
20
106.0
30
-6.059
40
3.0
62
152
0
LINE
8
Etichette
10
109.7611
20
107.0261
30
-6.059
11
111.0997
21
108.0674
31
-6.059
62
200
0
LINE
8
Etichette
10
111.0997
20
108.0674
30
-6.059
11
108.9469
21
110.2202
31
-6.059
62
200
0
LINE
8
Etichette
10
108.9469
20
110.2202
30
-6.059
11
108.9469
21
113.2647
31
-6.059
62
200
0
LINE
8
Etichette
10
108.9469
20
113.2647
30
-6.059
11
111.0997
21
115.4175
31
-6.059
62
200
0
LINE
8
Etichette
10
111.0997
20
115.4175
30
-6.059
11
114.1442
21
115.4175
31
-6.059
62
200
0
LINE
8
Etichette
10
114.1442
20
115.4175
30
-6.059
11
116.297
21
113.2647
31
-6.059
62
200
0
LINE
8
Etichette
10
116.297
20
113.2647
30
-6.059
11
116.297
21
110.2202
31
-6.059
62
200
0
LINE
8
Etichette
10
116.297
20
110.2202
30
-6.059
11
114.1442
21
108.0674
31
-6.059
62
200
0
LINE
8
Etichette
10
114.1442
20
108.0674
30
-6.059
11
109.7611
21
107.0261
31
-6.059
62
200
0
TEXT
8
Tag
10
109.7157523554723
20
109.99245
30
-6.059
40
3.5
1
12
62
6
0
CIRCLE
8
Cerchi
10
106.942
20
184.0
30
-7.501
40
3.0
62
152
0
LINE
8
Etichette
10
109.7611
20
185.0261
30
-7.501
11
111.0997
21
186.0674
31
-7.501
62
200
0
LINE
8
Etichette
10
111.0997
20
186.0674
30
-7.501
11
108.9469
21
188.2202
31
-7.501
62
200
0
LINE
8
Etichette
10
108.9469
20
188.2202
30
-7.501
11
108.9469
21
191.2647
31
-7.501
62
200
0
LINE
8
Etichette
10
108.9469
20
191.2647
30
-7.501
11
111.0997
21
193.4175
31
-7.501
62
200
0
LINE
8
Etichette
10
111.0997
20
193.4175
30
-7.501
11
114.1442
21
193.4175
31
-7.501
62
200
0
LINE
8
Etichette
10
114.1442
20
193.4175
30
-7.501
11
116.297
21
191.2647
31
-7.501
62
200
0
LINE
8
Etichette
10
116.297
20
191.2647
30
-7.501
11
116.297
21
188.2202
31
-7.501
62
200
0
LINE
8
Etichette
10
116.297
20
188.2202
30
-7.501
11
114.1442
21
186.0674
31
-7.501
62
200
0
LINE
8
Etichette
10
114.1442
20
186.0674
30
-7.501
11
109.7611
21
185.0261
31
-7.501
62
200
0
TEXT
8
Tag
10
109.7157523554723
20
187.99245000000002
30
-7.501
40
3.5
1
13
62
6
0
CIRCLE
8
Cerchi
10
144.4
20
217.206
30
-4.95
40
3.0
62
152
0
LINE
8
Etichette
10
147.2191
20
218.2321
30
-4.95
11
148.5577
21
219.2734
31
-4.95
62
200
0
LINE
8
Etichette
10
148.5577
20
219.2734
30
-4.95
11
146.4049
21
221.4262
31
-4.95
62
200
0
LINE
8
Etichette
10
146.4049
20
221.4262
30
-4.95
11
146.4049
21
224.4707
31
-4.95
62
200
0
LINE
8
Etichette
10
146.4049
20
224.4707
30
-4.95
11
148.5577
21
226.6235
31
-4.95
62
200
0
LINE
8
Etichette
10
148.5577
20
226.6235
30
-4.95
11
151.6022
21
226.6235
31
-4.95
62
200
0
LINE
8
Etichette
10
151.6022
20
226.6235
30
-4.95
11
153.755
21
224.4707
31
-4.95
62
200
0
LINE
8
Etichette
10
153.755
20
224.4707
30
-4.95
11
153.755
21
221.4262
31
-4.95
62
200
0
LINE
8
Etichette
10
153.755
20
221.4262
30
-4.95
11
151.6022
21
219.2734
31
-4.95
62
200
0
LINE
8
Etichette
10
151.6022
20
219.2734
30
-4.95
11
147.2191
21
218.2321
31
-4.95
62
200
0
TEXT
8
Tag
10
147.1737523554723
20
221.19845
30
-4.95
40
3.5
1
14
62
6
0
CIRCLE
8
Cerchi
10
162.373
20
171.684
30
-5.43
40
3.0
62
152
0
LINE
8
Etichette
10
165.1921
20
172.7101
30
-5.43
11
166.5307
21
173.7514
31
-5.43
62
200
0
LINE
8
Etichette
10
166.5307
20
173.7514
30
-5.43
11
164.3779
21
175.9042
31
-5.43
62
200
0
LINE
8
Etichette
10
164.3779
20
175.9042
30
-5.43
11
164.3779
21
178.9487
31
-5.43
62
200
0
LINE
8
Etichette
10
164.3779
20
178.9487
30
-5.43
11
166.5307
21
181.1015
31
-5.43
62
200
0
LINE
8
Etichette
10
166.5307
20
181.1015
30
-5.43
11
169.5752
21
181.1015
31
-5.43
62
200
0
LINE
8
Etichette
10
169.5752
20
181.1015
30
-5.43
11
171.728
21
178.9487
31
-5.43
62
200
0
LINE
8
Etichette
10
171.728
20
178.9487
30
-5.43
11
171.728
21
175.9042
31
-5.43
62
200
0
LINE
8
Etichette
10
171.728
20
175.9042
30
-5.43
11
169.5752
21
173.7514
31
-5.43
62
200
0
LINE
8
Etichette
10
169.5752
20
173.7514
30
-5.43
11
165.1921
21
172.7101
31
-5.43
62
200
0
TEXT
8
Tag
10
165.1467523554723
20
175.67645000000002
30
-5.43
40
3.5
1
15
62
6
0
CIRCLE
8
Cerchi
10
163.0
20
17.0
30
-5.499
40
3.0
62
152
0
LINE
8
Etichette
10
165.8191
20
18.0261
30
-5.499
11
167.1577
21
19.0674
31
-5.499
62
200
0
LINE
8
Etichette
10
167.1577
20
19.0674
30
-5.499
11
165.0049
21
21.2202
31
-5.499
62
200
0
LINE
8
Etichette
10
165.0049
20
21.2202
30
-5.499
11
165.0049
21
24.2647
31
-5.499
62
200
0
LINE
8
Etichette
10
165.0049
20
24.2647
30
-5.499
11
167.1577
21
26.4175
31
-5.499
62
200
0
LINE
8
Etichette
10
167.1577
20
26.4175
30
-5.499
11
170.2022
21
26.4175
31
-5.499
62
200
0
LINE
8
Etichette
10
170.2022
20
26.4175
30
-5.499
11
172.355
21
24.2647
31
-5.499
62
200
0
LINE
8
Etichette
10
172.355
20
24.2647
30
-5.499
11
172.355
21
21.2202
31
-5.499
62
200
0
LINE
8
Etichette
10
172.355
20
21.2202
30
-5.499
11
170.2022
21
19.0674
31
-5.499
62
200
0
LINE
8
Etichette
10
170.2022
20
19.0674
30
-5.499
11
165.8191
21
18.0261
31
-5.499
62
200
0
TEXT
8
Tag
10
165.77375235547228
20
20.992449999999998
30
-5.499
40
3.5
1
16
62
6
0
CIRCLE
8
Cerchi
10
163.0
20
105.0
30
-5.499
40
3.0
62
152
0
LINE
8
Etichette
10
165.8191
20
106.0261
30
-5.499
11
167.1577
21
107.0674
31
-5.499
62
200
0
LINE
8
Etichette
10
167.1577
20
107.0674
30
-5.499
11
165.0049
21
109.2202
31
-5.499
62
200
0
LINE
8
Etichette
10
165.0049
20
109.2202
30
-5.499
11
165.0049
21
112.2647
31
-5.499
62
200
0
LINE
8
Etichette
10
165.0049
20
112.2647
30
-5.499
11
167.1577
21
114.4175
31
-5.499
62
200
0
LINE
8
Etichette
10
167.1577
20
114.4175
30
-5.499
11
170.2022
21
114.4175
31
-5.499
62
200
0
LINE
8
Etichette
10
170.2022
20
114.4175
30
-5.499
11
172.355
21
112.2647
31
-5.499
62
200
0
LINE
8
Etichette
10
172.355
20
112.2647
30
-5.499
11
172.355
21
109.2202
31
-5.499
62
200
0
LINE
8
Etichette
10
172.355
20
109.2202
30
-5.499
11
170.2022
21
107.0674
31
-5.499
62
200
0
LINE
8
Etichette
10
170.2022
20
107.0674
30
-5.499
11
165.8191
21
106.0261
31
-5.499
62
200
0
TEXT
8
Tag
10
165.77375235547228
20
108.99245
30
-5.499
40
3.5
1
17
62
6
0
CIRCLE
8
Cerchi
10
-110.868
20
86.398
30
-20.508
40
4.0
62
152
0
LINE
8
Etichette
10
-107.1092
20
87.7661
30
-20.508
11
-105.7706
21
88.8074
31
-20.508
62
200
0
LINE
8
Etichette
10
-105.7706
20
88.8074
30
-20.508
11
-107.9234
21
90.9602
31
-20.508
62
200
0
LINE
8
Etichette
10
-107.9234
20
90.9602
30
-20.508
11
-107.9234
21
94.0047
31
-20.508
62
200
0
LINE
8
Etichette
10
-107.9234
20
94.0047
30
-20.508
11
-105.7706
21
96.1575
31
-20.508
62
200
0
LINE
8
Etichette
10
-105.7706
20
96.1575
30
-20.508
11
-102.7261
21
96.1575
31
-20.508
62
200
0
LINE
8
Etichette
10
-102.7261
20
96.1575
30
-20.508
11
-100.5733
21
94.0047
31
-20.508
62
200
0
LINE
8
Etichette
10
-100.5733
20
94.0047
30
-20.508
11
-100.5733
21
90.9602
31
-20.508
62
200
0
LINE
8
Etichette
10
-100.5733
20
90.9602
30
-20.508
11
-102.7261
21
88.8074
31
-20.508
62
200
0
LINE
8
Etichette
10
-102.7261
20
88.8074
30
-20.508
11
-107.1092
21
87.7661
31
-20.508
62
200
0
TEXT
8
Tag
10
-107.1545476445277
20
90.73245
30
-20.508
40
3.5
1
18
62
6
0
CIRCLE
8
Cerchi
10
0.0
20
86.6
30
-20.458
40
4.0
62
152
0
LINE
8
Etichette
10
3.7588
20
87.9681
30
-20.458
11
5.0974
21
89.0094
31
-20.458
62
200
0
LINE
8
Etichette
10
5.0974
20
89.0094
30
-20.458
11
2.9446
21
91.1622
31
-20.458
62
200
0
LINE
8
Etichette
10
2.9446
20
91.1622
30
-20.458
11
2.9446
21
94.2067
31
-20.458
62
200
0
LINE
8
Etichette
10
2.9446
20
94.2067
30
-20.458
11
5.0974
21
96.3595
31
-20.458
62
200
0
LINE
8
Etichette
10
5.0974
20
96.3595
30
-20.458
11
8.1419
21
96.3595
31
-20.458
62
200
0
LINE
8
Etichette
10
8.1419
20
96.3595
30
-20.458
11
10.2947
21
94.2067
31
-20.458
62
200
0
LINE
8
Etichette
10
10.2947
20
94.2067
30
-20.458
11
10.2947
21
91.1622
31
-20.458
62
200
0
LINE
8
Etichette
10
10.2947
20
91.1622
30
-20.458
11
8.1419
21
89.0094
31
-20.458
62
200
0
LINE
8
Etichette
10
8.1419
20
89.0094
30
-20.458
11
3.7588
21
87.9681
31
-20.458
62
200
0
TEXT
8
Tag
10
3.7134523554723016
20
90.93445
30
-20.458
40
3.5
1
19
62
6
0
CIRCLE
8
Cerchi
10
68.914
20
21.719
30
-12.65
40
4.0
62
152
0
LINE
8
Etichette
10
72.6728
20
23.0871
30
-12.65
11
74.0114
21
24.1284
31
-12.65
62
200
0
LINE
8
Etichette
10
74.0114
20
24.1284
30
-12.65
11
71.8586
21
26.2812
31
-12.65
62
200
0
LINE
8
Etichette
10
71.8586
20
26.2812
30
-12.65
11
71.8586
21
29.3257
31
-12.65
62
200
0
LINE
8
Etichette
10
71.8586
20
29.3257
30
-12.65
11
74.0114
21
31.4785
31
-12.65
62
200
0
LINE
8
Etichette
10
74.0114
20
31.4785
30
-12.65
11
77.0559
21
31.4785
31
-12.65
62
200
0
LINE
8
Etichette
10
77.0559
20
31.4785
30
-12.65
11
79.2087
21
29.3257
31
-12.65
62
200
0
LINE
8
Etichette
10
79.2087
20
29.3257
30
-12.65
11
79.2087
21
26.2812
31
-12.65
62
200
0
LINE
8
Etichette
10
79.2087
20
26.2812
30
-12.65
11
77.0559
21
24.1284
31
-12.65
62
200
0
LINE
8
Etichette
10
77.0559
20
24.1284
30
-12.65
11
72.6728
21
23.0871
31
-12.65
62
200
0
TEXT
8
Tag
10
72.6274523554723
20
26.053449999999998
30
-12.65
40
3.5
1
20
62
6
0
CIRCLE
8
Cerchi
10
69.001
20
134.55
30
-13.299
40
4.0
62
152
0
LINE
8
Etichette
10
72.7598
20
135.9181
30
-13.299
11
74.0984
21
136.9594
31
-13.299
62
200
0
LINE
8
Etichette
10
74.0984
20
136.9594
30
-13.299
11
71.9456
21
139.1122
31
-13.299
62
200
0
LINE
8
Etichette
10
71.9456
20
139.1122
30
-13.299
11
71.9456
21
142.1567
31
-13.299
62
200
0
LINE
8
Etichette
10
71.9456
20
142.1567
30
-13.299
11
74.0984
21
144.3095
31
-13.299
62
200
0
LINE
8
Etichette
10
74.0984
20
144.3095
30
-13.299
11
77.1429
21
144.3095
31
-13.299
62
200
0
LINE
8
Etichette
10
77.1429
20
144.3095
30
-13.299
11
79.2957
21
142.1567
31
-13.299
62
200
0
LINE
8
Etichette
10
79.2957
20
142.1567
30
-13.299
11
79.2957
21
139.1122
31
-13.299
62
200
0
LINE
8
Etichette
10
79.2957
20
139.1122
30
-13.299
11
77.1429
21
136.9594
31
-13.299
62
200
0
LINE
8
Etichette
10
77.1429
20
136.9594
30
-13.299
11
72.7598
21
135.9181
31
-13.299
62
200
0
TEXT
8
Tag
10
72.7144523554723
20
138.88445000000002
30
-13.299
40
3.5
1
21
62
6
0
CIRCLE
8
Cerchi
10
-158.0
20
84.0
30
-6.501
40
5.0
62
152
0
LINE
8
Etichette
10
-153.3015
20
85.7101
30
-6.501
11
-151.9629
21
86.7514
31
-6.501
62
200
0
LINE
8
Etichette
10
-151.9629
20
86.7514
30
-6.501
11
-154.1157
21
88.9042
31
-6.501
62
200
0
LINE
8
Etichette
10
-154.1157
20
88.9042
30
-6.501
11
-154.1157
21
91.9487
31
-6.501
62
200
0
LINE
8
Etichette
10
-154.1157
20
91.9487
30
-6.501
11
-151.9629
21
94.1015
31
-6.501
62
200
0
LINE
8
Etichette
10
-151.9629
20
94.1015
30
-6.501
11
-148.9184
21
94.1015
31
-6.501
62
200
0
LINE
8
Etichette
10
-148.9184
20
94.1015
30
-6.501
11
-146.7656
21
91.9487
31
-6.501
62
200
0
LINE
8
Etichette
10
-146.7656
20
91.9487
30
-6.501
11
-146.7656
21
88.9042
31
-6.501
62
200
0
LINE
8
Etichette
10
-146.7656
20
88.9042
30
-6.501
11
-148.9184
21
86.7514
31
-6.501
62
200
0
LINE
8
Etichette
10
-148.9184
20
86.7514
30
-6.501
11
-153.3015
21
85.7101
31
-6.501
62
200
0
TEXT
8
Tag
10
-153.3468476445277
20
88.67645
30
-6.501
40
3.5
1
22
62
6
0
CIRCLE
8
Cerchi
10
-158.0
20
126.0
30
-6.501
40
5.0
62
152
0
LINE
8
Etichette
10
-153.3015
20
127.7101
30
-6.501
11
-151.9629
21
128.7514
31
-6.501
62
200
0
LINE
8
Etichette
10
-151.9629
20
128.7514
30
-6.501
11
-154.1157
21
130.9042
31
-6.501
62
200
0
LINE
8
Etichette
10
-154.1157
20
130.9042
30
-6.501
11
-154.1157
21
133.9487
31
-6.501
62
200
0
LINE
8
Etichette
10
-154.1157
20
133.9487
30
-6.501
11
-151.9629
21
136.1015
31
-6.501
62
200
0
LINE
8
Etichette
10
-151.9629
20
136.1015
30
-6.501
11
-148.9184
21
136.1015
31
-6.501
62
200
0
LINE
8
Etichette
10
-148.9184
20
136.1015
30
-6.501
11
-146.7656
21
133.9487
31
-6.501
62
200
0
LINE
8
Etichette
10
-146.7656
20
133.9487
30
-6.501
11
-146.7656
21
130.9042
31
-6.501
62
200
0
LINE
8
Etichette
10
-146.7656
20
130.9042
30
-6.501
11
-148.9184
21
128.7514
31
-6.501
62
200
0
LINE
8
Etichette
10
-148.9184
20
128.7514
30
-6.501
11
-153.3015
21
127.7101
31
-6.501
62
200
0
TEXT
8
Tag
10
-153.3468476445277
20
130.67645000000002
30
-6.501
40
3.5
1
23
62
6
0
CIRCLE
8
Cerchi
10
-152.0
20
41.0
30
-6.501
40
5.0
62
152
0
LINE
8
Etichette
10
-147.3015
20
42.7101
30
-6.501
11
-145.9629
21
43.7514
31
-6.501
62
200
0
LINE
8
Etichette
10
-145.9629
20
43.7514
30
-6.501
11
-148.1157
21
45.9042
31
-6.501
62
200
0
LINE
8
Etichette
10
-148.1157
20
45.9042
30
-6.501
11
-148.1157
21
48.9487
31
-6.501
62
200
0
LINE
8
Etichette
10
-148.1157
20
48.9487
30
-6.501
11
-145.9629
21
51.1015
31
-6.501
62
200
0
LINE
8
Etichette
10
-145.9629
20
51.1015
30
-6.501
11
-142.9184
21
51.1015
31
-6.501
62
200
0
LINE
8
Etichette
10
-142.9184
20
51.1015
30
-6.501
11
-140.7656
21
48.9487
31
-6.501
62
200
0
LINE
8
Etichette
10
-140.7656
20
48.9487
30
-6.501
11
-140.7656
21
45.9042
31
-6.501
62
200
0
LINE
8
Etichette
10
-140.7656
20
45.9042
30
-6.501
11
-142.9184
21
43.7514
31
-6.501
62
200
0
LINE
8
Etichette
10
-142.9184
20
43.7514
30
-6.501
11
-147.3015
21
42.7101
31
-6.501
62
200
0
TEXT
8
Tag
10
-147.3468476445277
20
45.67645
30
-6.501
40
3.5
1
24
62
6
0
CIRCLE
8
Cerchi
10
-112.304
20
17.915
30
-22.5
40
5.0
62
152
0
LINE
8
Etichette
10
-107.6055
20
19.6251
30
-22.5
11
-106.2669
21
20.6664
31
-22.5
62
200
0
LINE
8
Etichette
10
-106.2669
20
20.6664
30
-22.5
11
-108.4197
21
22.8192
31
-22.5
62
200
0
LINE
8
Etichette
10
-108.4197
20
22.8192
30
-22.5
11
-108.4197
21
25.8637
31
-22.5
62
200
0
LINE
8
Etichette
10
-108.4197
20
25.8637
30
-22.5
11
-106.2669
21
28.0165
31
-22.5
62
200
0
LINE
8
Etichette
10
-106.2669
20
28.0165
30
-22.5
11
-103.2224
21
28.0165
31
-22.5
62
200
0
LINE
8
Etichette
10
-103.2224
20
28.0165
30
-22.5
11
-101.0696
21
25.8637
31
-22.5
62
200
0
LINE
8
Etichette
10
-101.0696
20
25.8637
30
-22.5
11
-101.0696
21
22.8192
31
-22.5
62
200
0
LINE
8
Etichette
10
-101.0696
20
22.8192
30
-22.5
11
-103.2224
21
20.6664
31
-22.5
62
200
0
LINE
8
Etichette
10
-103.2224
20
20.6664
30
-22.5
11
-107.6055
21
19.6251
31
-22.5
62
200
0
TEXT
8
Tag
10
-107.6508476445277
20
22.59145
30
-22.5
40
3.5
1
25
62
6
0
CIRCLE
8
Cerchi
10
-112.08
20
57.058
30
-16.967
40
5.0
62
152
0
LINE
8
Etichette
10
-107.3815
20
58.7681
30
-16.967
11
-106.0429
21
59.8094
31
-16.967
62
200
0
LINE
8
Etichette
10
-106.0429
20
59.8094
30
-16.967
11
-108.1957
21
61.9622
31
-16.967
62
200
0
LINE
8
Etichette
10
-108.1957
20
61.9622
30
-16.967
11
-108.1957
21
65.0067
31
-16.967
62
200
0
LINE
8
Etichette
10
-108.1957
20
65.0067
30
-16.967
11
-106.0429
21
67.1595
31
-16.967
62
200
0
LINE
8
Etichette
10
-106.0429
20
67.1595
30
-16.967
11
-102.9984
21
67.1595
31
-16.967
62
200
0
LINE
8
Etichette
10
-102.9984
20
67.1595
30
-16.967
11
-100.8456
21
65.0067
31
-16.967
62
200
0
LINE
8
Etichette
10
-100.8456
20
65.0067
30
-16.967
11
-100.8456
21
61.9622
31
-16.967
62
200
0
LINE
8
Etichette
10
-100.8456
20
61.9622
30
-16.967
11
-102.9984
21
59.8094
31
-16.967
62
200
0
LINE
8
Etichette
10
-102.9984
20
59.8094
30
-16.967
11
-107.3815
21
58.7681
31
-16.967
62
200
0
TEXT
8
Tag
10
-107.4268476445277
20
61.73445
30
-16.967
40
3.5
1
26
62
6
0
CIRCLE
8
Cerchi
10
-0.0
20
18.0
30
-22.5
40
5.0
62
152
0
LINE
8
Etichette
10
4.6985
20
19.7101
30
-22.5
11
6.0371
21
20.7514
31
-22.5
62
200
0
LINE
8
Etichette
10
6.0371
20
20.7514
30
-22.5
11
3.8843
21
22.9042
31
-22.5
62
200
0
LINE
8
Etichette
10
3.8843
20
22.9042
30
-22.5
11
3.8843
21
25.9487
31
-22.5
62
200
0
LINE
8
Etichette
10
3.8843
20
25.9487
30
-22.5
11
6.0371
21
28.1015
31
-22.5
62
200
0
LINE
8
Etichette
10
6.0371
20
28.1015
30
-22.5
11
9.0816
21
28.1015
31
-22.5
62
200
0
LINE
8
Etichette
10
9.0816
20
28.1015
30
-22.5
11
11.2344
21
25.9487
31
-22.5
62
200
0
LINE
8
Etichette
10
11.2344
20
25.9487
30
-22.5
11
11.2344
21
22.9042
31
-22.5
62
200
0
LINE
8
Etichette
10
11.2344
20
22.9042
30
-22.5
11
9.0816
21
20.7514
31
-22.5
62
200
0
LINE
8
Etichette
10
9.0816
20
20.7514
30
-22.5
11
4.6985
21
19.7101
31
-22.5
62
200
0
TEXT
8
Tag
10
4.653152355472302
20
22.67645
30
-22.5
40
3.5
1
27
62
6
0
CIRCLE
8
Cerchi
10
-0.0
20
56.745
30
-17.312
40
5.0
62
152
0
LINE
8
Etichette
10
4.6985
20
58.4551
30
-17.312
11
6.0371
21
59.4964
31
-17.312
62
200
0
LINE
8
Etichette
10
6.0371
20
59.4964
30
-17.312
11
3.8843
21
61.6492
31
-17.312
62
200
0
LINE
8
Etichette
10
3.8843
20
61.6492
30
-17.312
11
3.8843
21
64.6937
31
-17.312
62
200
0
LINE
8
Etichette
10
3.8843
20
64.6937
30
-17.312
11
6.0371
21
66.8465
31
-17.312
62
200
0
LINE
8
Etichette
10
6.0371
20
66.8465
30
-17.312
11
9.0816
21
66.8465
31
-17.312
62
200
0
LINE
8
Etichette
10
9.0816
20
66.8465
30
-17.312
11
11.2344
21
64.6937
31
-17.312
62
200
0
LINE
8
Etichette
10
11.2344
20
64.6937
30
-17.312
11
11.2344
21
61.6492
31
-17.312
62
200
0
LINE
8
Etichette
10
11.2344
20
61.6492
30
-17.312
11
9.0816
21
59.4964
31
-17.312
62
200
0
LINE
8
Etichette
10
9.0816
20
59.4964
30
-17.312
11
4.6985
21
58.4551
31
-17.312
62
200
0
TEXT
8
Tag
10
4.653152355472302
20
61.42145
30
-17.312
40
3.5
1
28
62
6
0
CIRCLE
8
Cerchi
10
26.0
20
357.0
30
-11.525
40
5.0
62
152
0
LINE
8
Etichette
10
30.6985
20
358.7101
30
-11.525
11
32.0371
21
359.7514
31
-11.525
62
200
0
LINE
8
Etichette
10
32.0371
20
359.7514
30
-11.525
11
29.8843
21
361.9042
31
-11.525
62
200
0
LINE
8
Etichette
10
29.8843
20
361.9042
30
-11.525
11
29.8843
21
364.9487
31
-11.525
62
200
0
LINE
8
Etichette
10
29.8843
20
364.9487
30
-11.525
11
32.0371
21
367.1015
31
-11.525
62
200
0
LINE
8
Etichette
10
32.0371
20
367.1015
30
-11.525
11
35.0816
21
367.1015
31
-11.525
62
200
0
LINE
8
Etichette
10
35.0816
20
367.1015
30
-11.525
11
37.2344
21
364.9487
31
-11.525
62
200
0
LINE
8
Etichette
10
37.2344
20
364.9487
30
-11.525
11
37.2344
21
361.9042
31
-11.525
62
200
0
LINE
8
Etichette
10
37.2344
20
361.9042
30
-11.525
11
35.0816
21
359.7514
31
-11.525
62
200
0
LINE
8
Etichette
10
35.0816
20
359.7514
30
-11.525
11
30.6985
21
358.7101
31
-11.525
62
200
0
TEXT
8
Tag
10
30.6531523554723
20
361.67645
30
-11.525
40
3.5
1
29
62
6
0
CIRCLE
8
Cerchi
10
51.0
20
327.0
30
-14.525
40
5.0
62
152
0
LINE
8
Etichette
10
55.6985
20
328.7101
30
-14.525
11
57.0371
21
329.7514
31
-14.525
62
200
0
LINE
8
Etichette
10
57.0371
20
329.7514
30
-14.525
11
54.8843
21
331.9042
31
-14.525
62
200
0
LINE
8
Etichette
10
54.8843
20
331.9042
30
-14.525
11
54.8843
21
334.9487
31
-14.525
62
200
0
LINE
8
Etichette
10
54.8843
20
334.9487
30
-14.525
11
57.0371
21
337.1015
31
-14.525
62
200
0
LINE
8
Etichette
10
57.0371
20
337.1015
30
-14.525
11
60.0816
21
337.1015
31
-14.525
62
200
0
LINE
8
Etichette
10
60.0816
20
337.1015
30
-14.525
11
62.2344
21
334.9487
31
-14.525
62
200
0
LINE
8
Etichette
10
62.2344
20
334.9487
30
-14.525
11
62.2344
21
331.9042
31
-14.525
62
200
0
LINE
8
Etichette
10
62.2344
20
331.9042
30
-14.525
11
60.0816
21
329.7514
31
-14.525
62
200
0
LINE
8
Etichette
10
60.0816
20
329.7514
30
-14.525
11
55.6985
21
328.7101
31
-14.525
62
200
0
TEXT
8
Tag
10
55.65315235547231
20
331.67645
30
-14.525
40
3.5
1
30
62
6
0
CIRCLE
8
Cerchi
10
85.0
20
286.0
30
-14.525
40
5.0
62
152
0
LINE
8
Etichette
10
89.6985
20
287.7101
30
-14.525
11
91.0371
21
288.7514
31
-14.525
62
200
0
LINE
8
Etichette
10
91.0371
20
288.7514
30
-14.525
11
88.8843
21
290.9042
31
-14.525
62
200
0
LINE
8
Etichette
10
88.8843
20
290.9042
30
-14.525
11
88.8843
21
293.9487
31
-14.525
62
200
0
LINE
8
Etichette
10
88.8843
20
293.9487
30
-14.525
11
91.0371
21
296.1015
31
-14.525
62
200
0
LINE
8
Etichette
10
91.0371
20
296.1015
30
-14.525
11
94.0816
21
296.1015
31
-14.525
62
200
0
LINE
8
Etichette
10
94.0816
20
296.1015
30
-14.525
11
96.2344
21
293.9487
31
-14.525
62
200
0
LINE
8
Etichette
10
96.2344
20
293.9487
30
-14.525
11
96.2344
21
290.9042
31
-14.525
62
200
0
LINE
8
Etichette
10
96.2344
20
290.9042
30
-14.525
11
94.0816
21
288.7514
31
-14.525
62
200
0
LINE
8
Etichette
10
94.0816
20
288.7514
30
-14.525
11
89.6985
21
287.7101
31
-14.525
62
200
0
TEXT
8
Tag
10
89.6531523554723
20
290.67645
30
-14.525
40
3.5
1
31
62
6
0
CIRCLE
8
Cerchi
10
106.942
20
54.5
30
-6.655
40
5.0
62
152
0
LINE
8
Etichette
10
111.6405
20
56.2101
30
-6.655
11
112.9791
21
57.2514
31
-6.655
62
200
0
LINE
8
Etichette
10
112.9791
20
57.2514
30
-6.655
11
110.8263
21
59.4042
31
-6.655
62
200
0
LINE
8
Etichette
10
110.8263
20
59.4042
30
-6.655
11
110.8263
21
62.4487
31
-6.655
62
200
0
LINE
8
Etichette
10
110.8263
20
62.4487
30
-6.655
11
112.9791
21
64.6015
31
-6.655
62
200
0
LINE
8
Etichette
10
112.9791
20
64.6015
30
-6.655
11
116.0236
21
64.6015
31
-6.655
62
200
0
LINE
8
Etichette
10
116.0236
20
64.6015
30
-6.655
11
118.1764
21
62.4487
31
-6.655
62
200
0
LINE
8
Etichette
10
118.1764
20
62.4487
30
-6.655
11
118.1764
21
59.4042
31
-6.655
62
200
0
LINE
8
Etichette
10
118.1764
20
59.4042
30
-6.655
11
116.0236
21
57.2514
31
-6.655
62
200
0
LINE
8
Etichette
10
116.0236
20
57.2514
30
-6.655
11
111.6405
21
56.2101
31
-6.655
62
200
0
TEXT
8
Tag
10
111.59515235547231
20
59.17645
30
-6.655
40
3.5
1
32
62
6
0
CIRCLE
8
Cerchi
10
121.0
20
244.0
30
-14.525
40
5.0
62
152
0
LINE
8
Etichette
10
125.6985
20
245.7101
30
-14.525
11
127.0371
21
246.7514
31
-14.525
62
200
0
LINE
8
Etichette
10
127.0371
20
246.7514
30
-14.525
11
124.8843
21
248.9042
31
-14.525
62
200
0
LINE
8
Etichette
10
124.8843
20
248.9042
30
-14.525
11
124.8843
21
251.9487
31
-14.525
62
200
0
LINE
8
Etichette
10
124.8843
20
251.9487
30
-14.525
11
127.0371
21
254.1015
31
-14.525
62
200
0
LINE
8
Etichette
10
127.0371
20
254.1015
30
-14.525
11
130.0816
21
254.1015
31
-14.525
62
200
0
LINE
8
Etichette
10
130.0816
20
254.1015
30
-14.525
11
132.2344
21
251.9487
31
-14.525
62
200
0
LINE
8
Etichette
10
132.2344
20
251.9487
30
-14.525
11
132.2344
21
248.9042
31
-14.525
62
200
0
LINE
8
Etichette
10
132.2344
20
248.9042
30
-14.525
11
130.0816
21
246.7514
31
-14.525
62
200
0
LINE
8
Etichette
10
130.0816
20
246.7514
30
-14.525
11
125.6985
21
245.7101
31
-14.525
62
200
0
TEXT
8
Tag
10
125.6531523554723
20
248.67645000000002
30
-14.525
40
3.5
1
33
62
6
0
CIRCLE
8
Cerchi
10
-158.5
20
348.0
30
-0.0
40
6.0
62
152
0
LINE
8
Etichette
10
-152.8618
20
350.0521
30
-0.0
11
-151.5232
21
351.0934
31
-0.0
62
200
0
LINE
8
Etichette
10
-151.5232
20
351.0934
30
-0.0
11
-153.676
21
353.2462
31
-0.0
62
200
0
LINE
8
Etichette
10
-153.676
20
353.2462
30
-0.0
11
-153.676
21
356.2907
31
-0.0
62
200
0
LINE
8
Etichette
10
-153.676
20
356.2907
30
-0.0
11
-151.5232
21
358.4435
31
-0.0
62
200
0
LINE
8
Etichette
10
-151.5232
20
358.4435
30
-0.0
11
-148.4787
21
358.4435
31
-0.0
62
200
0
LINE
8
Etichette
10
-148.4787
20
358.4435
30
-0.0
11
-146.3259
21
356.2907
31
-0.0
62
200
0
LINE
8
Etichette
10
-146.3259
20
356.2907
30
-0.0
11
-146.3259
21
353.2462
31
-0.0
62
200
0
LINE
8
Etichette
10
-146.3259
20
353.2462
30
-0.0
11
-148.4787
21
351.0934
31
-0.0
62
200
0
LINE
8
Etichette
10
-148.4787
20
351.0934
30
-0.0
11
-152.8618
21
350.0521
31
-0.0
62
200
0
TEXT
8
Tag
10
-152.9071476445277
20
353.01845
30
-0.0
40
3.5
1
34
62
6
0
CIRCLE
8
Cerchi
10
-126.5
20
141.0
30
-0.0
40
6.0
62
152
0
LINE
8
Etichette
10
-120.8618
20
143.0521
30
-0.0
11
-119.5232
21
144.0934
31
-0.0
62
200
0
LINE
8
Etichette
10
-119.5232
20
144.0934
30
-0.0
11
-121.676
21
146.2462
31
-0.0
62
200
0
LINE
8
Etichette
10
-121.676
20
146.2462
30
-0.0
11
-121.676
21
149.2907
31
-0.0
62
200
0
LINE
8
Etichette
10
-121.676
20
149.2907
30
-0.0
11
-119.5232
21
151.4435
31
-0.0
62
200
0
LINE
8
Etichette
10
-119.5232
20
151.4435
30
-0.0
11
-116.4787
21
151.4435
31
-0.0
62
200
0
LINE
8
Etichette
10
-116.4787
20
151.4435
30
-0.0
11
-114.3259
21
149.2907
31
-0.0
62
200
0
LINE
8
Etichette
10
-114.3259
20
149.2907
30
-0.0
11
-114.3259
21
146.2462
31
-0.0
62
200
0
LINE
8
Etichette
10
-114.3259
20
146.2462
30
-0.0
11
-116.4787
21
144.0934
31
-0.0
62
200
0
LINE
8
Etichette
10
-116.4787
20
144.0934
30
-0.0
11
-120.8618
21
143.0521
31
-0.0
62
200
0
TEXT
8
Tag
10
-120.9071476445277
20
146.01845
30
-0.0
40
3.5
1
35
62
6
0
CIRCLE
8
Cerchi
10
136.5
20
101.0
30
-0.0
40
6.0
62
152
0
LINE
8
Etichette
10
142.1382
20
103.0521
30
-0.0
11
143.4768
21
104.0934
31
-0.0
62
200
0
LINE
8
Etichette
10
143.4768
20
104.0934
30
-0.0
11
141.324
21
106.2462
31
-0.0
62
200
0
LINE
8
Etichette
10
141.324
20
106.2462
30
-0.0
11
141.324
21
109.2907
31
-0.0
62
200
0
LINE
8
Etichette
10
141.324
20
109.2907
30
-0.0
11
143.4768
21
111.4435
31
-0.0
62
200
0
LINE
8
Etichette
10
143.4768
20
111.4435
30
-0.0
11
146.5213
21
111.4435
31
-0.0
62
200
0
LINE
8
Etichette
10
146.5213
20
111.4435
30
-0.0
11
148.6741
21
109.2907
31
-0.0
62
200
0
LINE
8
Etichette
10
148.6741
20
109.2907
30
-0.0
11
148.6741
21
106.2462
31
-0.0
62
200
0
LINE
8
Etichette
10
148.6741
20
106.2462
30
-0.0
11
146.5213
21
104.0934
31
-0.0
62
200
0
LINE
8
Etichette
10
146.5213
20
104.0934
30
-0.0
11
142.1382
21
103.0521
31
-0.0
62
200
0
TEXT
8
Tag
10
142.0928523554723
20
106.01845
30
-0.0
40
3.5
1
36
62
6
0
CIRCLE
8
Cerchi
10
158.5
20
348.0
30
-0.0
40
6.0
62
152
0
LINE
8
Etichette
10
164.1382
20
350.0521
30
-0.0
11
165.4768
21
351.0934
31
-0.0
62
200
0
LINE
8
Etichette
10
165.4768
20
351.0934
30
-0.0
11
163.324
21
353.2462
31
-0.0
62
200
0
LINE
8
Etichette
10
163.324
20
353.2462
30
-0.0
11
163.324
21
356.2907
31
-0.0
62
200
0
LINE
8
Etichette
10
163.324
20
356.2907
30
-0.0
11
165.4768
21
358.4435
31
-0.0
62
200
0
LINE
8
Etichette
10
165.4768
20
358.4435
30
-0.0
11
168.5213
21
358.4435
31
-0.0
62
200
0
LINE
8
Etichette
10
168.5213
20
358.4435
30
-0.0
11
170.6741
21
356.2907
31
-0.0
62
200
0
LINE
8
Etichette
10
170.6741
20
356.2907
30
-0.0
11
170.6741
21
353.2462
31
-0.0
62
200
0
LINE
8
Etichette
10
170.6741
20
353.2462
30
-0.0
11
168.5213
21
351.0934
31
-0.0
62
200
0
LINE
8
Etichette
10
168.5213
20
351.0934
30
-0.0
11
164.1382
21
350.0521
31
-0.0
62
200
0
TEXT
8
Tag
10
164.0928523554723
20
353.01845
30
-0.0
40
3.5
1
37
62
6
0
ENDSEC
0
EOF