999
File "test.dxf" esportato tramite "Hole Table Generator" by "Kill Goliath"
999
Powered by Davide Fasolo 2018
0
SECTION
2
ENTITIES
0
LINE
8
Cerchi
10
-137.855
20
0
11
137.189
21
0
62
102
0
LINE
8
Cerchi
10
0
20
208.0
11
0
21
-208.0
62
102
0
CIRCLE
8
Cerchi
10
-51.655
20
83.781
30
-15.777
40
3.0
62
152
0
LINE
8
Etichette
10
-48.8359
20
84.8071
30
-15.777
11
-47.816
21
85.6004
31
-15.777
62
200
0
LINE
8
Etichette
10
-47.816
20
85.6004
30
-15.777
11
-49.4562
21
87.2406
31
-15.777
62
200
0
LINE
8
Etichette
10
-49.4562
20
87.2406
30
-15.777
11
-49.4562
21
89.5602
31
-15.777
62
200
0
LINE
8
Etichette
10
-49.4562
20
89.5602
30
-15.777
11
-47.816
21
91.2004
31
-15.777
62
200
0
LINE
8
Etichette
10
-47.816
20
91.2004
30
-15.777
11
-45.4964
21
91.2004
31
-15.777
62
200
0
LINE
8
Etichette
10
-45.4964
20
91.2004
30
-15.777
11
-43.8562
21
89.5602
31
-15.777
62
200
0
LINE
8
Etichette
10
-43.8562
20
89.5602
30
-15.777
11
-43.8562
21
87.2406
31
-15.777
62
200
0
LINE
8
Etichette
10
-43.8562
20
87.2406
30
-15.777
11
-45.4964
21
85.6004
31
-15.777
62
200
0
LINE
8
Etichette
10
-45.4964
20
85.6004
30
-15.777
11
-48.8359
21
84.8071
31
-15.777
62
200
0
TEXT
8
Tag
10
-48.74306743928682
20
86.6504
30
-15.777
40
3.5
1
1
62
6
0
CIRCLE
8
Cerchi
10
-33.943
20
83.781
30
-3.655
40
3.0
62
152
0
LINE
8
Etichette
10
-31.1239
20
84.8071
30
-3.655
11
-30.104
21
85.6004
31
-3.655
62
200
0
LINE
8
Etichette
10
-30.104
20
85.6004
30
-3.655
11
-31.7442
21
87.2406
31
-3.655
62
200
0
LINE
8
Etichette
10
-31.7442
20
87.2406
30
-3.655
11
-31.7442
21
89.5602
31
-3.655
62
200
0
LINE
8
Etichette
10
-31.7442
20
89.5602
30
-3.655
11
-30.104
21
91.2004
31
-3.655
62
200
0
LINE
8
Etichette
10
-30.104
20
91.2004
30
-3.655
11
-27.7844
21
91.2004
31
-3.655
62
200
0
LINE
8
Etichette
10
-27.7844
20
91.2004
30
-3.655
11
-26.1442
21
89.5602
31
-3.655
62
200
0
LINE
8
Etichette
10
-26.1442
20
89.5602
30
-3.655
11
-26.1442
21
87.2406
31
-3.655
62
200
0
LINE
8
Etichette
10
-26.1442
20
87.2406
30
-3.655
11
-27.7844
21
85.6004
31
-3.655
62
200
0
LINE
8
Etichette
10
-27.7844
20
85.6004
30
-3.655
11
-31.1239
21
84.8071
31
-3.655
62
200
0
TEXT
8
Tag
10
-31.03106743928682
20
86.6504
30
-3.655
40
3.5
1
2
62
6
0
CIRCLE
8
Cerchi
10
33.277
20
83.781
30
-3.655
40
3.0
62
152
0
LINE
8
Etichette
10
36.0961
20
84.8071
30
-3.655
11
37.116
21
85.6004
31
-3.655
62
200
0
LINE
8
Etichette
10
37.116
20
85.6004
30
-3.655
11
35.4758
21
87.2406
31
-3.655
62
200
0
LINE
8
Etichette
10
35.4758
20
87.2406
30
-3.655
11
35.4758
21
89.5602
31
-3.655
62
200
0
LINE
8
Etichette
10
35.4758
20
89.5602
30
-3.655
11
37.116
21
91.2004
31
-3.655
62
200
0
LINE
8
Etichette
10
37.116
20
91.2004
30
-3.655
11
39.4356
21
91.2004
31
-3.655
62
200
0
LINE
8
Etichette
10
39.4356
20
91.2004
30
-3.655
11
41.0758
21
89.5602
31
-3.655
62
200
0
LINE
8
Etichette
10
41.0758
20
89.5602
30
-3.655
11
41.0758
21
87.2406
31
-3.655
62
200
0
LINE
8
Etichette
10
41.0758
20
87.2406
30
-3.655
11
39.4356
21
85.6004
31
-3.655
62
200
0
LINE
8
Etichette
10
39.4356
20
85.6004
30
-3.655
11
36.0961
21
84.8071
31
-3.655
62
200
0
TEXT
8
Tag
10
36.188932560713184
20
86.6504
30
-3.655
40
3.5
1
3
62
6
0
CIRCLE
8
Cerchi
10
50.989
20
83.781
30
-15.777
40
3.0
62
152
0
LINE
8
Etichette
10
53.8081
20
84.8071
30
-15.777
11
54.828
21
85.6004
31
-15.777
62
200
0
LINE
8
Etichette
10
54.828
20
85.6004
30
-15.777
11
53.1878
21
87.2406
31
-15.777
62
200
0
LINE
8
Etichette
10
53.1878
20
87.2406
30
-15.777
11
53.1878
21
89.5602
31
-15.777
62
200
0
LINE
8
Etichette
10
53.1878
20
89.5602
30
-15.777
11
54.828
21
91.2004
31
-15.777
62
200
0
LINE
8
Etichette
10
54.828
20
91.2004
30
-15.777
11
57.1476
21
91.2004
31
-15.777
62
200
0
LINE
8
Etichette
10
57.1476
20
91.2004
30
-15.777
11
58.7878
21
89.5602
31
-15.777
62
200
0
LINE
8
Etichette
10
58.7878
20
89.5602
30
-15.777
11
58.7878
21
87.2406
31
-15.777
62
200
0
LINE
8
Etichette
10
58.7878
20
87.2406
30
-15.777
11
57.1476
21
85.6004
31
-15.777
62
200
0
LINE
8
Etichette
10
57.1476
20
85.6004
30
-15.777
11
53.8081
21
84.8071
31
-15.777
62
200
0
TEXT
8
Tag
10
53.90093256071319
20
86.6504
30
-15.777
40
3.5
1
4
62
6
0
CIRCLE
8
Cerchi
10
-131.855
20
0.366
30
-19.547
40
4.0
62
152
0
LINE
8
Etichette
10
-128.0962
20
1.7341
30
-19.547
11
-127.0763
21
2.5274
31
-19.547
62
200
0
LINE
8
Etichette
10
-127.0763
20
2.5274
30
-19.547
11
-128.7165
21
4.1676
31
-19.547
62
200
0
LINE
8
Etichette
10
-128.7165
20
4.1676
30
-19.547
11
-128.7165
21
6.4872
31
-19.547
62
200
0
LINE
8
Etichette
10
-128.7165
20
6.4872
30
-19.547
11
-127.0763
21
8.1274
31
-19.547
62
200
0
LINE
8
Etichette
10
-127.0763
20
8.1274
30
-19.547
11
-124.7567
21
8.1274
31
-19.547
62
200
0
LINE
8
Etichette
10
-124.7567
20
8.1274
30
-19.547
11
-123.1165
21
6.4872
31
-19.547
62
200
0
LINE
8
Etichette
10
-123.1165
20
6.4872
30
-19.547
11
-123.1165
21
4.1676
31
-19.547
62
200
0
LINE
8
Etichette
10
-123.1165
20
4.1676
30
-19.547
11
-124.7567
21
2.5274
31
-19.547
62
200
0
LINE
8
Etichette
10
-124.7567
20
2.5274
30
-19.547
11
-128.0962
21
1.7341
31
-19.547
62
200
0
TEXT
8
Tag
10
-128.00336743928682
20
3.5774
30
-19.547
40
3.5
1
5
62
6
0
CIRCLE
8
Cerchi
10
-131.855
20
83.781
30
-16.537
40
4.0
62
152
0
LINE
8
Etichette
10
-128.0962
20
85.1491
30
-16.537
11
-127.0763
21
85.9424
31
-16.537
62
200
0
LINE
8
Etichette
10
-127.0763
20
85.9424
30
-16.537
11
-128.7165
21
87.5826
31
-16.537
62
200
0
LINE
8
Etichette
10
-128.7165
20
87.5826
30
-16.537
11
-128.7165
21
89.9022
31
-16.537
62
200
0
LINE
8
Etichette
10
-128.7165
20
89.9022
30
-16.537
11
-127.0763
21
91.5424
31
-16.537
62
200
0
LINE
8
Etichette
10
-127.0763
20
91.5424
30
-16.537
11
-124.7567
21
91.5424
31
-16.537
62
200
0
LINE
8
Etichette
10
-124.7567
20
91.5424
30
-16.537
11
-123.1165
21
89.9022
31
-16.537
62
200
0
LINE
8
Etichette
10
-123.1165
20
89.9022
30
-16.537
11
-123.1165
21
87.5826
31
-16.537
62
200
0
LINE
8
Etichette
10
-123.1165
20
87.5826
30
-16.537
11
-124.7567
21
85.9424
31
-16.537
62
200
0
LINE
8
Etichette
10
-124.7567
20
85.9424
30
-16.537
11
-128.0962
21
85.1491
31
-16.537
62
200
0
TEXT
8
Tag
10
-128.00336743928682
20
86.9924
30
-16.537
40
3.5
1
6
62
6
0
CIRCLE
8
Cerchi
10
131.195
20
0.366
30
-19.547
40
4.0
62
152
0
LINE
8
Etichette
10
134.9538
20
1.7341
30
-19.547
11
135.9737
21
2.5274
31
-19.547
62
200
0
LINE
8
Etichette
10
135.9737
20
2.5274
30
-19.547
11
134.3335
21
4.1676
31
-19.547
62
200
0
LINE
8
Etichette
10
134.3335
20
4.1676
30
-19.547
11
134.3335
21
6.4872
31
-19.547
62
200
0
LINE
8
Etichette
10
134.3335
20
6.4872
30
-19.547
11
135.9737
21
8.1274
31
-19.547
62
200
0
LINE
8
Etichette
10
135.9737
20
8.1274
30
-19.547
11
138.2933
21
8.1274
31
-19.547
62
200
0
LINE
8
Etichette
10
138.2933
20
8.1274
30
-19.547
11
139.9335
21
6.4872
31
-19.547
62
200
0
LINE
8
Etichette
10
139.9335
20
6.4872
30
-19.547
11
139.9335
21
4.1676
31
-19.547
62
200
0
LINE
8
Etichette
10
139.9335
20
4.1676
30
-19.547
11
138.2933
21
2.5274
31
-19.547
62
200
0
LINE
8
Etichette
10
138.2933
20
2.5274
30
-19.547
11
134.9538
21
1.7341
31
-19.547
62
200
0
TEXT
8
Tag
10
135.04663256071316
20
3.5774
30
-19.547
40
3.5
1
7
62
6
0
CIRCLE
8
Cerchi
10
131.195
20
83.781
30
-16.537
40
4.0
62
152
0
LINE
8
Etichette
10
134.9538
20
85.1491
30
-16.537
11
135.9737
21
85.9424
31
-16.537
62
200
0
LINE
8
Etichette
10
135.9737
20
85.9424
30
-16.537
11
134.3335
21
87.5826
31
-16.537
62
200
0
LINE
8
Etichette
10
134.3335
20
87.5826
30
-16.537
11
134.3335
21
89.9022
31
-16.537
62
200
0
LINE
8
Etichette
10
134.3335
20
89.9022
30
-16.537
11
135.9737
21
91.5424
31
-16.537
62
200
0
LINE
8
Etichette
10
135.9737
20
91.5424
30
-16.537
11
138.2933
21
91.5424
31
-16.537
62
200
0
LINE
8
Etichette
10
138.2933
20
91.5424
30
-16.537
11
139.9335
21
89.9022
31
-16.537
62
200
0
LINE
8
Etichette
10
139.9335
20
89.9022
30
-16.537
11
139.9335
21
87.5826
31
-16.537
62
200
0
LINE
8
Etichette
10
139.9335
20
87.5826
30
-16.537
11
138.2933
21
85.9424
31
-16.537
62
200
0
LINE
8
Etichette
10
138.2933
20
85.9424
30
-16.537
11
134.9538
21
85.1491
31
-16.537
62
200
0
TEXT
8
Tag
10
135.04663256071316
20
86.9924
30
-16.537
40
3.5
1
8
62
6
0
CIRCLE
8
Cerchi
10
-20.0
20
0.0
30
-87.235
40
5.0
62
152
0
LINE
8
Etichette
10
-15.3015
20
1.7101
30
-87.235
11
-14.2816
21
2.5034
31
-87.235
62
200
0
LINE
8
Etichette
10
-14.2816
20
2.5034
30
-87.235
11
-15.9218
21
4.1436
31
-87.235
62
200
0
LINE
8
Etichette
10
-15.9218
20
4.1436
30
-87.235
11
-15.9218
21
6.4632
31
-87.235
62
200
0
LINE
8
Etichette
10
-15.9218
20
6.4632
30
-87.235
11
-14.2816
21
8.1034
31
-87.235
62
200
0
LINE
8
Etichette
10
-14.2816
20
8.1034
30
-87.235
11
-11.962
21
8.1034
31
-87.235
62
200
0
LINE
8
Etichette
10
-11.962
20
8.1034
30
-87.235
11
-10.3218
21
6.4632
31
-87.235
62
200
0
LINE
8
Etichette
10
-10.3218
20
6.4632
30
-87.235
11
-10.3218
21
4.1436
31
-87.235
62
200
0
LINE
8
Etichette
10
-10.3218
20
4.1436
30
-87.235
11
-11.962
21
2.5034
31
-87.235
62
200
0
LINE
8
Etichette
10
-11.962
20
2.5034
30
-87.235
11
-15.3015
21
1.7101
31
-87.235
62
200
0
TEXT
8
Tag
10
-15.208667439286819
20
3.5534
30
-87.235
40
3.5
1
9
62
6
0
CIRCLE
8
Cerchi
10
0.0
20
-22.0
30
-87.235
40
5.0
62
152
0
LINE
8
Etichette
10
4.6985
20
-20.2899
30
-87.235
11
6.0371
21
-19.2486
31
-87.235
62
200
0
LINE
8
Etichette
10
6.0371
20
-19.2486
30
-87.235
11
3.8843
21
-17.0958
31
-87.235
62
200
0
LINE
8
Etichette
10
3.8843
20
-17.0958
30
-87.235
11
3.8843
21
-14.0513
31
-87.235
62
200
0
LINE
8
Etichette
10
3.8843
20
-14.0513
30
-87.235
11
6.0371
21
-11.8985
31
-87.235
62
200
0
LINE
8
Etichette
10
6.0371
20
-11.8985
30
-87.235
11
9.0816
21
-11.8985
31
-87.235
62
200
0
LINE
8
Etichette
10
9.0816
20
-11.8985
30
-87.235
11
11.2344
21
-14.0513
31
-87.235
62
200
0
LINE
8
Etichette
10
11.2344
20
-14.0513
30
-87.235
11
11.2344
21
-17.0958
31
-87.235
62
200
0
LINE
8
Etichette
10
11.2344
20
-17.0958
30
-87.235
11
9.0816
21
-19.2486
31
-87.235
62
200
0
LINE
8
Etichette
10
9.0816
20
-19.2486
30
-87.235
11
4.6985
21
-20.2899
31
-87.235
62
200
0
TEXT
8
Tag
10
4.653152355472302
20
-17.32355
30
-87.235
40
3.5
1
10
62
6
0
CIRCLE
8
Cerchi
10
0.0
20
22.0
30
-87.235
40
5.0
62
152
0
LINE
8
Etichette
10
4.6985
20
23.7101
30
-87.235
11
6.0371
21
24.7514
31
-87.235
62
200
0
LINE
8
Etichette
10
6.0371
20
24.7514
30
-87.235
11
3.8843
21
26.9042
31
-87.235
62
200
0
LINE
8
Etichette
10
3.8843
20
26.9042
30
-87.235
11
3.8843
21
29.9487
31
-87.235
62
200
0
LINE
8
Etichette
10
3.8843
20
29.9487
30
-87.235
11
6.0371
21
32.1015
31
-87.235
62
200
0
LINE
8
Etichette
10
6.0371
20
32.1015
30
-87.235
11
9.0816
21
32.1015
31
-87.235
62
200
0
LINE
8
Etichette
10
9.0816
20
32.1015
30
-87.235
11
11.2344
21
29.9487
31
-87.235
62
200
0
LINE
8
Etichette
10
11.2344
20
29.9487
30
-87.235
11
11.2344
21
26.9042
31
-87.235
62
200
0
LINE
8
Etichette
10
11.2344
20
26.9042
30
-87.235
11
9.0816
21
24.7514
31
-87.235
62
200
0
LINE
8
Etichette
10
9.0816
20
24.7514
30
-87.235
11
4.6985
21
23.7101
31
-87.235
62
200
0
TEXT
8
Tag
10
4.653152355472302
20
26.67645
30
-87.235
40
3.5
1
11
62
6
0
CIRCLE
8
Cerchi
10
20.0
20
0.0
30
-87.235
40
5.0
62
152
0
LINE
8
Etichette
10
24.6985
20
1.7101
30
-87.235
11
26.0371
21
2.7514
31
-87.235
62
200
0
LINE
8
Etichette
10
26.0371
20
2.7514
30
-87.235
11
23.8843
21
4.9042
31
-87.235
62
200
0
LINE
8
Etichette
10
23.8843
20
4.9042
30
-87.235
11
23.8843
21
7.9487
31
-87.235
62
200
0
LINE
8
Etichette
10
23.8843
20
7.9487
30
-87.235
11
26.0371
21
10.1015
31
-87.235
62
200
0
LINE
8
Etichette
10
26.0371
20
10.1015
30
-87.235
11
29.0816
21
10.1015
31
-87.235
62
200
0
LINE
8
Etichette
10
29.0816
20
10.1015
30
-87.235
11
31.2344
21
7.9487
31
-87.235
62
200
0
LINE
8
Etichette
10
31.2344
20
7.9487
30
-87.235
11
31.2344
21
4.9042
31
-87.235
62
200
0
LINE
8
Etichette
10
31.2344
20
4.9042
30
-87.235
11
29.0816
21
2.7514
31
-87.235
62
200
0
LINE
8
Etichette
10
29.0816
20
2.7514
30
-87.235
11
24.6985
21
1.7101
31
-87.235
62
200
0
TEXT
8
Tag
10
24.6531523554723
20
4.676450000000001
30
-87.235
40
3.5
1
12
62
6
0
CIRCLE
8
Cerchi
10
-131.855
20
30.366
30
-12.363
40
6.0
62
152
0
LINE
8
Etichette
10
-126.2168
20
32.4181
30
-12.363
11
-124.8782
21
33.4594
31
-12.363
62
200
0
LINE
8
Etichette
10
-124.8782
20
33.4594
30
-12.363
11
-127.031
21
35.6122
31
-12.363
62
200
0
LINE
8
Etichette
10
-127.031
20
35.6122
30
-12.363
11
-127.031
21
38.6567
31
-12.363
62
200
0
LINE
8
Etichette
10
-127.031
20
38.6567
30
-12.363
11
-124.8782
21
40.8095
31
-12.363
62
200
0
LINE
8
Etichette
10
-124.8782
20
40.8095
30
-12.363
11
-121.8337
21
40.8095
31
-12.363
62
200
0
LINE
8
Etichette
10
-121.8337
20
40.8095
30
-12.363
11
-119.6809
21
38.6567
31
-12.363
62
200
0
LINE
8
Etichette
10
-119.6809
20
38.6567
30
-12.363
11
-119.6809
21
35.6122
31
-12.363
62
200
0
LINE
8
Etichette
10
-119.6809
20
35.6122
30
-12.363
11
-121.8337
21
33.4594
31
-12.363
62
200
0
LINE
8
Etichette
10
-121.8337
20
33.4594
30
-12.363
11
-126.2168
21
32.4181
31
-12.363
62
200
0
TEXT
8
Tag
10
-126.2621476445277
20
35.38445
30
-12.363
40
3.5
1
13
62
6
0
CIRCLE
8
Cerchi
10
-129.32
20
-81.337
30
-32.463
40
6.0
62
152
0
LINE
8
Etichette
10
-123.6818
20
-79.2849
30
-32.463
11
-122.3432
21
-78.2436
31
-32.463
62
200
0
LINE
8
Etichette
10
-122.3432
20
-78.2436
30
-32.463
11
-124.496
21
-76.0908
31
-32.463
62
200
0
LINE
8
Etichette
10
-124.496
20
-76.0908
30
-32.463
11
-124.496
21
-73.0463
31
-32.463
62
200
0
LINE
8
Etichette
10
-124.496
20
-73.0463
30
-32.463
11
-122.3432
21
-70.8935
31
-32.463
62
200
0
LINE
8
Etichette
10
-122.3432
20
-70.8935
30
-32.463
11
-119.2987
21
-70.8935
31
-32.463
62
200
0
LINE
8
Etichette
10
-119.2987
20
-70.8935
30
-32.463
11
-117.1459
21
-73.0463
31
-32.463
62
200
0
LINE
8
Etichette
10
-117.1459
20
-73.0463
30
-32.463
11
-117.1459
21
-76.0908
31
-32.463
62
200
0
LINE
8
Etichette
10
-117.1459
20
-76.0908
30
-32.463
11
-119.2987
21
-78.2436
31
-32.463
62
200
0
LINE
8
Etichette
10
-119.2987
20
-78.2436
30
-32.463
11
-123.6818
21
-79.2849
31
-32.463
62
200
0
TEXT
8
Tag
10
-123.72714764452769
20
-76.31855
30
-32.463
40
3.5
1
14
62
6
0
CIRCLE
8
Cerchi
10
-117.992
20
125.227
30
-5.859
40
6.0
62
152
0
LINE
8
Etichette
10
-112.3538
20
127.2791
30
-5.859
11
-111.0152
21
128.3204
31
-5.859
62
200
0
LINE
8
Etichette
10
-111.0152
20
128.3204
30
-5.859
11
-113.168
21
130.4732
31
-5.859
62
200
0
LINE
8
Etichette
10
-113.168
20
130.4732
30
-5.859
11
-113.168
21
133.5177
31
-5.859
62
200
0
LINE
8
Etichette
10
-113.168
20
133.5177
30
-5.859
11
-111.0152
21
135.6705
31
-5.859
62
200
0
LINE
8
Etichette
10
-111.0152
20
135.6705
30
-5.859
11
-107.9707
21
135.6705
31
-5.859
62
200
0
LINE
8
Etichette
10
-107.9707
20
135.6705
30
-5.859
11
-105.8179
21
133.5177
31
-5.859
62
200
0
LINE
8
Etichette
10
-105.8179
20
133.5177
30
-5.859
11
-105.8179
21
130.4732
31
-5.859
62
200
0
LINE
8
Etichette
10
-105.8179
20
130.4732
30
-5.859
11
-107.9707
21
128.3204
31
-5.859
62
200
0
LINE
8
Etichette
10
-107.9707
20
128.3204
30
-5.859
11
-112.3538
21
127.2791
31
-5.859
62
200
0
TEXT
8
Tag
10
-112.3991476445277
20
130.24545
30
-5.859
40
3.5
1
15
62
6
0
CIRCLE
8
Cerchi
10
-115.809
20
-131.312
30
-12.363
40
6.0
62
152
0
LINE
8
Etichette
10
-110.1708
20
-129.2599
30
-12.363
11
-108.8322
21
-128.2186
31
-12.363
62
200
0
LINE
8
Etichette
10
-108.8322
20
-128.2186
30
-12.363
11
-110.985
21
-126.0658
31
-12.363
62
200
0
LINE
8
Etichette
10
-110.985
20
-126.0658
30
-12.363
11
-110.985
21
-123.0213
31
-12.363
62
200
0
LINE
8
Etichette
10
-110.985
20
-123.0213
30
-12.363
11
-108.8322
21
-120.8685
31
-12.363
62
200
0
LINE
8
Etichette
10
-108.8322
20
-120.8685
30
-12.363
11
-105.7877
21
-120.8685
31
-12.363
62
200
0
LINE
8
Etichette
10
-105.7877
20
-120.8685
30
-12.363
11
-103.6349
21
-123.0213
31
-12.363
62
200
0
LINE
8
Etichette
10
-103.6349
20
-123.0213
30
-12.363
11
-103.6349
21
-126.0658
31
-12.363
62
200
0
LINE
8
Etichette
10
-103.6349
20
-126.0658
30
-12.363
11
-105.7877
21
-128.2186
31
-12.363
62
200
0
LINE
8
Etichette
10
-105.7877
20
-128.2186
30
-12.363
11
-110.1708
21
-129.2599
31
-12.363
62
200
0
TEXT
8
Tag
10
-110.2161476445277
20
-126.29355
30
-12.363
40
3.5
1
16
62
6
0
CIRCLE
8
Cerchi
10
-41.855
20
-134.634
30
-12.363
40
6.0
62
152
0
LINE
8
Etichette
10
-36.2168
20
-132.5819
30
-12.363
11
-34.8782
21
-131.5406
31
-12.363
62
200
0
LINE
8
Etichette
10
-34.8782
20
-131.5406
30
-12.363
11
-37.031
21
-129.3878
31
-12.363
62
200
0
LINE
8
Etichette
10
-37.031
20
-129.3878
30
-12.363
11
-37.031
21
-126.3433
31
-12.363
62
200
0
LINE
8
Etichette
10
-37.031
20
-126.3433
30
-12.363
11
-34.8782
21
-124.1905
31
-12.363
62
200
0
LINE
8
Etichette
10
-34.8782
20
-124.1905
30
-12.363
11
-31.8337
21
-124.1905
31
-12.363
62
200
0
LINE
8
Etichette
10
-31.8337
20
-124.1905
30
-12.363
11
-29.6809
21
-126.3433
31
-12.363
62
200
0
LINE
8
Etichette
10
-29.6809
20
-126.3433
30
-12.363
11
-29.6809
21
-129.3878
31
-12.363
62
200
0
LINE
8
Etichette
10
-29.6809
20
-129.3878
30
-12.363
11
-31.8337
21
-131.5406
31
-12.363
62
200
0
LINE
8
Etichette
10
-31.8337
20
-131.5406
30
-12.363
11
-36.2168
21
-132.5819
31
-12.363
62
200
0
TEXT
8
Tag
10
-36.262147644527694
20
-129.61554999999998
30
-12.363
40
3.5
1
17
62
6
0
CIRCLE
8
Cerchi
10
-21.855
20
126.366
30
9.347
40
6.0
62
152
0
LINE
8
Etichette
10
-16.2168
20
128.4181
30
9.347
11
-14.8782
21
129.4594
31
9.347
62
200
0
LINE
8
Etichette
10
-14.8782
20
129.4594
30
9.347
11
-17.031
21
131.6122
31
9.347
62
200
0
LINE
8
Etichette
10
-17.031
20
131.6122
30
9.347
11
-17.031
21
134.6567
31
9.347
62
200
0
LINE
8
Etichette
10
-17.031
20
134.6567
30
9.347
11
-14.8782
21
136.8095
31
9.347
62
200
0
LINE
8
Etichette
10
-14.8782
20
136.8095
30
9.347
11
-11.8337
21
136.8095
31
9.347
62
200
0
LINE
8
Etichette
10
-11.8337
20
136.8095
30
9.347
11
-9.6809
21
134.6567
31
9.347
62
200
0
LINE
8
Etichette
10
-9.6809
20
134.6567
30
9.347
11
-9.6809
21
131.6122
31
9.347
62
200
0
LINE
8
Etichette
10
-9.6809
20
131.6122
30
9.347
11
-11.8337
21
129.4594
31
9.347
62
200
0
LINE
8
Etichette
10
-11.8337
20
129.4594
30
9.347
11
-16.2168
21
128.4181
31
9.347
62
200
0
TEXT
8
Tag
10
-16.262147644527698
20
131.38445000000002
30
9.347
40
3.5
1
18
62
6
0
CIRCLE
8
Cerchi
10
44.403
20
-134.611
30
-25.428
40
6.0
62
152
0
LINE
8
Etichette
10
50.0412
20
-132.5589
30
-25.428
11
51.3798
21
-131.5176
31
-25.428
62
200
0
LINE
8
Etichette
10
51.3798
20
-131.5176
30
-25.428
11
49.227
21
-129.3648
31
-25.428
62
200
0
LINE
8
Etichette
10
49.227
20
-129.3648
30
-25.428
11
49.227
21
-126.3203
31
-25.428
62
200
0
LINE
8
Etichette
10
49.227
20
-126.3203
30
-25.428
11
51.3798
21
-124.1675
31
-25.428
62
200
0
LINE
8
Etichette
10
51.3798
20
-124.1675
30
-25.428
11
54.4243
21
-124.1675
31
-25.428
62
200
0
LINE
8
Etichette
10
54.4243
20
-124.1675
30
-25.428
11
56.5771
21
-126.3203
31
-25.428
62
200
0
LINE
8
Etichette
10
56.5771
20
-126.3203
30
-25.428
11
56.5771
21
-129.3648
31
-25.428
62
200
0
LINE
8
Etichette
10
56.5771
20
-129.3648
30
-25.428
11
54.4243
21
-131.5176
31
-25.428
62
200
0
LINE
8
Etichette
10
54.4243
20
-131.5176
30
-25.428
11
50.0412
21
-132.5589
31
-25.428
62
200
0
TEXT
8
Tag
10
49.9958523554723
20
-129.59255
30
-25.428
40
3.5
1
19
62
6
0
CIRCLE
8
Cerchi
10
77.802
20
126.768
30
-12.363
40
6.0
62
152
0
LINE
8
Etichette
10
83.4402
20
128.8201
30
-12.363
11
84.7788
21
129.8614
31
-12.363
62
200
0
LINE
8
Etichette
10
84.7788
20
129.8614
30
-12.363
11
82.626
21
132.0142
31
-12.363
62
200
0
LINE
8
Etichette
10
82.626
20
132.0142
30
-12.363
11
82.626
21
135.0587
31
-12.363
62
200
0
LINE
8
Etichette
10
82.626
20
135.0587
30
-12.363
11
84.7788
21
137.2115
31
-12.363
62
200
0
LINE
8
Etichette
10
84.7788
20
137.2115
30
-12.363
11
87.8233
21
137.2115
31
-12.363
62
200
0
LINE
8
Etichette
10
87.8233
20
137.2115
30
-12.363
11
89.9761
21
135.0587
31
-12.363
62
200
0
LINE
8
Etichette
10
89.9761
20
135.0587
30
-12.363
11
89.9761
21
132.0142
31
-12.363
62
200
0
LINE
8
Etichette
10
89.9761
20
132.0142
30
-12.363
11
87.8233
21
129.8614
31
-12.363
62
200
0
LINE
8
Etichette
10
87.8233
20
129.8614
30
-12.363
11
83.4402
21
128.8201
31
-12.363
62
200
0
TEXT
8
Tag
10
83.39485235547231
20
131.78645
30
-12.363
40
3.5
1
20
62
6
0
CIRCLE
8
Cerchi
10
131.189
20
-134.634
30
0.2
40
6.0
62
152
0
LINE
8
Etichette
10
136.8272
20
-132.5819
30
0.2
11
138.1658
21
-131.5406
31
0.2
62
200
0
LINE
8
Etichette
10
138.1658
20
-131.5406
30
0.2
11
136.013
21
-129.3878
31
0.2
62
200
0
LINE
8
Etichette
10
136.013
20
-129.3878
30
0.2
11
136.013
21
-126.3433
31
0.2
62
200
0
LINE
8
Etichette
10
136.013
20
-126.3433
30
0.2
11
138.1658
21
-124.1905
31
0.2
62
200
0
LINE
8
Etichette
10
138.1658
20
-124.1905
30
0.2
11
141.2103
21
-124.1905
31
0.2
62
200
0
LINE
8
Etichette
10
141.2103
20
-124.1905
30
0.2
11
143.3631
21
-126.3433
31
0.2
62
200
0
LINE
8
Etichette
10
143.3631
20
-126.3433
30
0.2
11
143.3631
21
-129.3878
31
0.2
62
200
0
LINE
8
Etichette
10
143.3631
20
-129.3878
30
0.2
11
141.2103
21
-131.5406
31
0.2
62
200
0
LINE
8
Etichette
10
141.2103
20
-131.5406
30
0.2
11
136.8272
21
-132.5819
31
0.2
62
200
0
TEXT
8
Tag
10
136.7818523554723
20
-129.61554999999998
30
0.2
40
3.5
1
21
62
6
0
CIRCLE
8
Cerchi
10
131.189
20
-54.634
30
-12.363
40
6.0
62
152
0
LINE
8
Etichette
10
136.8272
20
-52.5819
30
-12.363
11
138.1658
21
-51.5406
31
-12.363
62
200
0
LINE
8
Etichette
10
138.1658
20
-51.5406
30
-12.363
11
136.013
21
-49.3878
31
-12.363
62
200
0
LINE
8
Etichette
10
136.013
20
-49.3878
30
-12.363
11
136.013
21
-46.3433
31
-12.363
62
200
0
LINE
8
Etichette
10
136.013
20
-46.3433
30
-12.363
11
138.1658
21
-44.1905
31
-12.363
62
200
0
LINE
8
Etichette
10
138.1658
20
-44.1905
30
-12.363
11
141.2103
21
-44.1905
31
-12.363
62
200
0
LINE
8
Etichette
10
141.2103
20
-44.1905
30
-12.363
11
143.3631
21
-46.3433
31
-12.363
62
200
0
LINE
8
Etichette
10
143.3631
20
-46.3433
30
-12.363
11
143.3631
21
-49.3878
31
-12.363
62
200
0
LINE
8
Etichette
10
143.3631
20
-49.3878
30
-12.363
11
141.2103
21
-51.5406
31
-12.363
62
200
0
LINE
8
Etichette
10
141.2103
20
-51.5406
30
-12.363
11
136.8272
21
-52.5819
31
-12.363
62
200
0
TEXT
8
Tag
10
136.7818523554723
20
-49.61555
30
-12.363
40
3.5
1
22
62
6
0
CIRCLE
8
Cerchi
10
131.189
20
40.366
30
-12.363
40
6.0
62
152
0
LINE
8
Etichette
10
136.8272
20
42.4181
30
-12.363
11
138.1658
21
43.4594
31
-12.363
62
200
0
LINE
8
Etichette
10
138.1658
20
43.4594
30
-12.363
11
136.013
21
45.6122
31
-12.363
62
200
0
LINE
8
Etichette
10
136.013
20
45.6122
30
-12.363
11
136.013
21
48.6567
31
-12.363
62
200
0
LINE
8
Etichette
10
136.013
20
48.6567
30
-12.363
11
138.1658
21
50.8095
31
-12.363
62
200
0
LINE
8
Etichette
10
138.1658
20
50.8095
30
-12.363
11
141.2103
21
50.8095
31
-12.363
62
200
0
LINE
8
Etichette
10
141.2103
20
50.8095
30
-12.363
11
143.3631
21
48.6567
31
-12.363
62
200
0
LINE
8
Etichette
10
143.3631
20
48.6567
30
-12.363
11
143.3631
21
45.6122
31
-12.363
62
200
0
LINE
8
Etichette
10
143.3631
20
45.6122
30
-12.363
11
141.2103
21
43.4594
31
-12.363
62
200
0
LINE
8
Etichette
10
141.2103
20
43.4594
30
-12.363
11
136.8272
21
42.4181
31
-12.363
62
200
0
TEXT
8
Tag
10
136.7818523554723
20
45.38445
30
-12.363
40
3.5
1
23
62
6
0
CIRCLE
8
Cerchi
10
131.189
20
126.366
30
-6.333
40
6.0
62
152
0
LINE
8
Etichette
10
136.8272
20
128.4181
30
-6.333
11
138.1658
21
129.4594
31
-6.333
62
200
0
LINE
8
Etichette
10
138.1658
20
129.4594
30
-6.333
11
136.013
21
131.6122
31
-6.333
62
200
0
LINE
8
Etichette
10
136.013
20
131.6122
30
-6.333
11
136.013
21
134.6567
31
-6.333
62
200
0
LINE
8
Etichette
10
136.013
20
134.6567
30
-6.333
11
138.1658
21
136.8095
31
-6.333
62
200
0
LINE
8
Etichette
10
138.1658
20
136.8095
30
-6.333
11
141.2103
21
136.8095
31
-6.333
62
200
0
LINE
8
Etichette
10
141.2103
20
136.8095
30
-6.333
11
143.3631
21
134.6567
31
-6.333
62
200
0
LINE
8
Etichette
10
143.3631
20
134.6567
30
-6.333
11
143.3631
21
131.6122
31
-6.333
62
200
0
LINE
8
Etichette
10
143.3631
20
131.6122
30
-6.333
11
141.2103
21
129.4594
31
-6.333
62
200
0
LINE
8
Etichette
10
141.2103
20
129.4594
30
-6.333
11
136.8272
21
128.4181
31
-6.333
62
200
0
TEXT
8
Tag
10
136.7818523554723
20
131.38445000000002
30
-6.333
40
3.5
1
24
62
6
0
CIRCLE
8
Cerchi
10
-125.0
20
-200.0
30
0.0
40
8.0
62
152
0
LINE
8
Etichette
10
-117.4825
20
-197.2638
30
0.0
11
-116.1439
21
-196.2225
31
0.0
62
200
0
LINE
8
Etichette
10
-116.1439
20
-196.2225
30
0.0
11
-118.2967
21
-194.0697
31
0.0
62
200
0
LINE
8
Etichette
10
-118.2967
20
-194.0697
30
0.0
11
-118.2967
21
-191.0252
31
0.0
62
200
0
LINE
8
Etichette
10
-118.2967
20
-191.0252
30
0.0
11
-116.1439
21
-188.8724
31
0.0
62
200
0
LINE
8
Etichette
10
-116.1439
20
-188.8724
30
0.0
11
-113.0994
21
-188.8724
31
0.0
62
200
0
LINE
8
Etichette
10
-113.0994
20
-188.8724
30
0.0
11
-110.9466
21
-191.0252
31
0.0
62
200
0
LINE
8
Etichette
10
-110.9466
20
-191.0252
30
0.0
11
-110.9466
21
-194.0697
31
0.0
62
200
0
LINE
8
Etichette
10
-110.9466
20
-194.0697
30
0.0
11
-113.0994
21
-196.2225
31
0.0
62
200
0
LINE
8
Etichette
10
-113.0994
20
-196.2225
30
0.0
11
-117.4825
21
-197.2638
31
0.0
62
200
0
TEXT
8
Tag
10
-117.5278476445277
20
-194.29745
30
0.0
40
3.5
1
25
62
6
0
CIRCLE
8
Cerchi
10
-125.0
20
200.0
30
0.0
40
8.0
62
152
0
LINE
8
Etichette
10
-117.4825
20
202.7362
30
0.0
11
-116.1439
21
203.7775
31
0.0
62
200
0
LINE
8
Etichette
10
-116.1439
20
203.7775
30
0.0
11
-118.2967
21
205.9303
31
0.0
62
200
0
LINE
8
Etichette
10
-118.2967
20
205.9303
30
0.0
11
-118.2967
21
208.9748
31
0.0
62
200
0
LINE
8
Etichette
10
-118.2967
20
208.9748
30
0.0
11
-116.1439
21
211.1276
31
0.0
62
200
0
LINE
8
Etichette
10
-116.1439
20
211.1276
30
0.0
11
-113.0994
21
211.1276
31
0.0
62
200
0
LINE
8
Etichette
10
-113.0994
20
211.1276
30
0.0
11
-110.9466
21
208.9748
31
0.0
62
200
0
LINE
8
Etichette
10
-110.9466
20
208.9748
30
0.0
11
-110.9466
21
205.9303
31
0.0
62
200
0
LINE
8
Etichette
10
-110.9466
20
205.9303
30
0.0
11
-113.0994
21
203.7775
31
0.0
62
200
0
LINE
8
Etichette
10
-113.0994
20
203.7775
30
0.0
11
-117.4825
21
202.7362
31
0.0
62
200
0
TEXT
8
Tag
10
-117.5278476445277
20
205.70255
30
0.0
40
3.5
1
26
62
6
0
CIRCLE
8
Cerchi
10
125.0
20
-200.0
30
0.0
40
8.0
62
152
0
LINE
8
Etichette
10
132.5175
20
-197.2638
30
0.0
11
133.8561
21
-196.2225
31
0.0
62
200
0
LINE
8
Etichette
10
133.8561
20
-196.2225
30
0.0
11
131.7033
21
-194.0697
31
0.0
62
200
0
LINE
8
Etichette
10
131.7033
20
-194.0697
30
0.0
11
131.7033
21
-191.0252
31
0.0
62
200
0
LINE
8
Etichette
10
131.7033
20
-191.0252
30
0.0
11
133.8561
21
-188.8724
31
0.0
62
200
0
LINE
8
Etichette
10
133.8561
20
-188.8724
30
0.0
11
136.9006
21
-188.8724
31
0.0
62
200
0
LINE
8
Etichette
10
136.9006
20
-188.8724
30
0.0
11
139.0534
21
-191.0252
31
0.0
62
200
0
LINE
8
Etichette
10
139.0534
20
-191.0252
30
0.0
11
139.0534
21
-194.0697
31
0.0
62
200
0
LINE
8
Etichette
10
139.0534
20
-194.0697
30
0.0
11
136.9006
21
-196.2225
31
0.0
62
200
0
LINE
8
Etichette
10
136.9006
20
-196.2225
30
0.0
11
132.5175
21
-197.2638
31
0.0
62
200
0
TEXT
8
Tag
10
132.4721523554723
20
-194.29745
30
0.0
40
3.5
1
27
62
6
0
CIRCLE
8
Cerchi
10
125.0
20
200.0
30
0.0
40
8.0
62
152
0
LINE
8
Etichette
10
132.5175
20
202.7362
30
0.0
11
133.8561
21
203.7775
31
0.0
62
200
0
LINE
8
Etichette
10
133.8561
20
203.7775
30
0.0
11
131.7033
21
205.9303
31
0.0
62
200
0
LINE
8
Etichette
10
131.7033
20
205.9303
30
0.0
11
131.7033
21
208.9748
31
0.0
62
200
0
LINE
8
Etichette
10
131.7033
20
208.9748
30
0.0
11
133.8561
21
211.1276
31
0.0
62
200
0
LINE
8
Etichette
10
133.8561
20
211.1276
30
0.0
11
136.9006
21
211.1276
31
0.0
62
200
0
LINE
8
Etichette
10
136.9006
20
211.1276
30
0.0
11
139.0534
21
208.9748
31
0.0
62
200
0
LINE
8
Etichette
10
139.0534
20
208.9748
30
0.0
11
139.0534
21
205.9303
31
0.0
62
200
0
LINE
8
Etichette
10
139.0534
20
205.9303
30
0.0
11
136.9006
21
203.7775
31
0.0
62
200
0
LINE
8
Etichette
10
136.9006
20
203.7775
30
0.0
11
132.5175
21
202.7362
31
0.0
62
200
0
TEXT
8
Tag
10
132.4721523554723
20
205.70255
30
0.0
40
3.5
1
28
62
6
0
ENDSEC
0
EOF